<?xml version="1.0" encoding="utf-8"?>
<!-- Generator: Adobe Illustrator 26.4.1, SVG Export Plug-In . SVG Version: 6.00 Build 0)  -->
<svg version="1.1" id="Layer_1" xmlns="http://www.w3.org/2000/svg" xmlns:xlink="http://www.w3.org/1999/xlink" x="0px" y="0px"
	 viewBox="0 0 352.7 500" style="enable-background:new 0 0 352.7 500;" xml:space="preserve">
<style type="text/css">
	.st0{clip-path:url(#SVGID_00000127755677123526969330000003573280459262924451_);fill:#962231;}
	
		.st1{clip-path:url(#SVGID_00000178202429532936522890000013345508999199880856_);fill:url(#SVGID_00000152960236820516764290000013854095248522124717_);}
	
		.st2{clip-path:url(#SVGID_00000079460019386936986750000016820770082480722105_);fill:url(#SVGID_00000143594256486984170880000001823040656982451363_);}
	
		.st3{clip-path:url(#SVGID_00000029724396866631942660000001980439517946780549_);fill:url(#SVGID_00000104667928413448332510000000414657171436600453_);}
	
		.st4{clip-path:url(#SVGID_00000115511537760105088200000009195084133105932983_);fill:url(#SVGID_00000044167581762925904840000001894657811630733221_);}
	
		.st5{clip-path:url(#SVGID_00000049920193064606667980000013898934505632586890_);fill:url(#SVGID_00000135683865119533013670000015691023857469329560_);}
	
		.st6{clip-path:url(#SVGID_00000058580661233343363730000018130185505032588429_);fill:url(#SVGID_00000060032282332624926340000015549735100707164555_);}
	
		.st7{clip-path:url(#SVGID_00000067236804121952075740000008460361261972103349_);fill:url(#SVGID_00000010301299731096285120000000510432064548409014_);}
	
		.st8{clip-path:url(#SVGID_00000094596564164786331850000017695667847332400523_);fill:url(#SVGID_00000044143428540345692430000013140706482009521827_);}
	
		.st9{clip-path:url(#SVGID_00000050639169228495800850000018243398040457012359_);fill:url(#SVGID_00000036209015262839376840000012571409209059768203_);}
	
		.st10{clip-path:url(#SVGID_00000171684280662799834990000012715016218716962713_);fill:url(#SVGID_00000033369718367283513270000008802312218695510163_);}
	
		.st11{clip-path:url(#SVGID_00000179620985854777870860000000544125161099403449_);fill:url(#SVGID_00000150088931045863141380000010357729189154459832_);}
	
		.st12{clip-path:url(#SVGID_00000098184827382415757870000002316087938125535637_);fill:url(#SVGID_00000091716014671906950100000001094143706219898276_);}
	
		.st13{clip-path:url(#SVGID_00000149341465922657180590000018378238890882360705_);fill:url(#SVGID_00000044877533138163035320000009282237031041292720_);}
	
		.st14{clip-path:url(#SVGID_00000020394403605086463430000013942804920312059557_);fill:url(#SVGID_00000060734968334098679850000008395012799336200109_);}
	
		.st15{clip-path:url(#SVGID_00000074418647402060831600000008566087383683069572_);fill:url(#SVGID_00000078018772850278687810000016595969431661166720_);}
	
		.st16{clip-path:url(#SVGID_00000067206895968552968500000000420508888442738320_);fill:url(#SVGID_00000009551594622919779490000008021345839605636773_);}
	
		.st17{clip-path:url(#SVGID_00000032643835515029484530000018367601801714176148_);fill:url(#SVGID_00000013911161321577778590000001010489958497974206_);}
	
		.st18{clip-path:url(#SVGID_00000122690255142738829410000010422014548852223622_);fill:url(#SVGID_00000023998065057594265340000008162681418046385804_);}
	
		.st19{clip-path:url(#SVGID_00000020356309722872554000000008937767521583232650_);fill:url(#SVGID_00000030481390649014501300000014324946988742699652_);}
	.st20{clip-path:url(#SVGID_00000139291581866316633440000018127098428014998186_);fill:#323031;}
	.st21{clip-path:url(#SVGID_00000139291581866316633440000018127098428014998186_);fill:#962231;}
	
		.st22{clip-path:url(#SVGID_00000139291581866316633440000018127098428014998186_);fill:none;stroke:#323031;stroke-width:1.351;stroke-miterlimit:10;}
</style>
<g>
	<g>
		<defs>
			<rect id="SVGID_1_" x="8.6" y="6.9" width="335.5" height="486.3"/>
		</defs>
		<clipPath id="SVGID_00000071543644554551331180000006577852074451536805_">
			<use xlink:href="#SVGID_1_"  style="overflow:visible;"/>
		</clipPath>
		<path style="clip-path:url(#SVGID_00000071543644554551331180000006577852074451536805_);fill:#962231;" d="M167,260.2
			c8,14.2,11.8-6.6,9.9-11.5c-6.3-15.3-12.6-30.9-21.5-44.8c-12.2-19.1-28.2-35.9-39.9-55.3c-10.2-16.8-5-32.3,12.5-40.9
			c29.6-14.7,60.1-16.5,90-5.1c1.3,0.5,3.2-1.7,2.9-3.3c-0.4-2.3,0-9.6-7.5-11.5c-0.7-0.2-1.4-0.4-2.1-0.7
			c-45-13.9-80.8,3.8-89.1,7.9c-28.4,13.9-36.9,38.2-23.1,66.5c4.3,8.8,10.2,17,16.2,24.8c14.6,19,33.3,35.4,39.7,59.6
			c0.9,3.4,1.5,10.1,3,12.6C160.9,263.4,158.4,245,167,260.2"/>
		<path style="clip-path:url(#SVGID_00000071543644554551331180000006577852074451536805_);fill:#962231;" d="M220.4,198.8
			c-9.6,12.7-31.6,37.3-35.1,62.8c1.4,0.4,2.9,0.9,4.3,1.3c-1.4-16.1,24-47.5,40.5-66.8C236.8,188.3,225.4,192.1,220.4,198.8"/>
		<path style="clip-path:url(#SVGID_00000071543644554551331180000006577852074451536805_);fill:#962231;" d="M164.4,266.3
			c0-1.4-3.3,0.7-4.5,0c0,10-0.8,18.3,0.4,26.4c0.3,2,1.3,2.8,2.5,2.9c0.1,0,0.3,0,0.4,0c2.9,0.1,7-2.7,8-2.7
			c13.7-0.6,16.8,3.5,18.5,0.1c-0.2-10.3,1.3-16.7-1.9-20.1C183.1,268.2,164.6,276,164.4,266.3"/>
	</g>
	<g>
		<defs>
			<path id="SVGID_00000108284671529937178490000003092979891016902839_" d="M238.7,61.9c-27.5,35.1,3.3,65.6,18.7,76.7
				c1.6,1.2,8.1,5.4,5.3,5c-4.5-0.7-15.8-2.8-27.3,0.8c-11.2,3.4-18.1,12.1-17.9,22.7c0.2,13.2,13.1,22.4,24.9,17.7
				c6.7-2.6,11-11.5,8.2-17.2c-4-8.1-8.7-3.9-13.4,0.3c-1.4-8.2,5-11.5,7.8-12.4c15.9-5.3,30,0,39.6,16.4c1.1,1.5,5.7,13.2,6.8,15.8
				c11.9,35-12.6,55.2-29.6,55.6c-4.4,0.1-10.5-1.6-13.3-8.3c5.8,5.2,14.3,7.1,21.3,3.7c34.1-16.7,15.6-65.4,1.3-70
				c-0.7-0.2-10.1,12.1,0,22.1c16.3,16.2,9.8,27.8,9.8,28c-2-6.6-2-10.3-4.8-14.2c-2.7-3.8-5.9-1.9-6-1.8c-2.1,2-1.2,4.5,0.5,6.3
				c3.2,3.3,5,7,5.5,10.3c1.7,10-6.7,18.3-16.6,16.7c-0.5-0.1-6.6-1-9.9-5.2c-1.2-1.6-2.3-4.5,0.5-8.4c4-4.6,11.6-6.8,17.7-3.7
				c-2-8.4-7.6-11.4-14.9-12c-10.1-0.8-18.3,5.2-21.6,15.5c-3.6,11.3,0.3,22,10.7,28.1c10.5,6.2,25,6.2,37.2,3.6
				c12.6-12.7,22.9-27.8,30.2-44.4c-1.1-16.3-8.5-49.6-41.6-78c-4.5-3.9-8.4-8.5-12.2-13.1c-9.5-11.5-9.9-28.6-0.6-39.6
				c2.8-3.3,7.3-5.9,11.5-7.2c5.9-1.7,13.5,3.6,13.5,8.7c0,7.3-5.3,7.7-10.9,7c1.3,7,4.3,9.5,10.4,9c7.3-0.6,12.7-5.9,13.1-13
				c1-16.6-15.2-28.3-31.5-22.2c-4,1.5-7.7,3.4-11.4,6.3c15.6-16.5,13.1-28.7,8.7-35.3c-2-1.3-4-2.6-6-3.9
				C257.2,42.9,241.9,57.8,238.7,61.9"/>
		</defs>
		<clipPath id="SVGID_00000149359579656382970540000016021720836836235965_">
			<use xlink:href="#SVGID_00000108284671529937178490000003092979891016902839_"  style="overflow:visible;"/>
		</clipPath>
		
			<linearGradient id="SVGID_00000119091070385626433710000013383212044837939592_" gradientUnits="userSpaceOnUse" x1="-6.2542" y1="515.9766" x2="-5.343" y2="515.9766" gradientTransform="matrix(156.044 276.3279 276.3279 -156.044 -141429.4688 82231.6094)">
			<stop  offset="0" style="stop-color:#D1BF84"/>
			<stop  offset="1" style="stop-color:#9F8554"/>
		</linearGradient>
		
			<polygon style="clip-path:url(#SVGID_00000149359579656382970540000016021720836836235965_);fill:url(#SVGID_00000119091070385626433710000013383212044837939592_);" points="
			285.5,-13.8 406.9,201.1 234.9,298.3 113.6,83.3 		"/>
	</g>
	<g>
		<defs>
			<path id="SVGID_00000118395366521508064740000000688767654602469301_" d="M266.8,38.8c-3.9,3.1-3.7,9.7-0.4,14.1
				c4.5,5.8,12.7,6.8,19.1,3.7c-1.9-2.1-3.8-4.2-5.7-6.2c-1.4,0-2.9-0.5-4.2-1.7c0.3-0.5,0.6-1.1,0.8-1.6c-3.1-2.9-6.2-5.7-9.5-8.4
				C266.9,38.7,266.9,38.7,266.8,38.8"/>
		</defs>
		<clipPath id="SVGID_00000069400051840703537380000011830072210090744451_">
			<use xlink:href="#SVGID_00000118395366521508064740000000688767654602469301_"  style="overflow:visible;"/>
		</clipPath>
		
			<linearGradient id="SVGID_00000077325551052910971750000017206837562817392316_" gradientUnits="userSpaceOnUse" x1="-6.2542" y1="515.9424" x2="-5.343" y2="515.9424" gradientTransform="matrix(156.044 276.3279 276.3279 -156.044 -141369.5625 82197.7812)">
			<stop  offset="0" style="stop-color:#D1BF84"/>
			<stop  offset="1" style="stop-color:#9F8554"/>
		</linearGradient>
		
			<polygon style="clip-path:url(#SVGID_00000069400051840703537380000011830072210090744451_);fill:url(#SVGID_00000077325551052910971750000017206837562817392316_);" points="
			280,29 294.5,54.5 268.4,69.3 253.9,43.7 		"/>
	</g>
	<g>
		<defs>
			<path id="SVGID_00000158744327229674775140000016001725021131324343_" d="M295.7,103.6c2.4,10,12,16.5,22.2,17.1
				c-0.8-3.6-1.7-7.2-2.8-10.7c-0.4-0.5-0.8-1-1.2-1.6c-1.7-2.5-2.2-5.2-2-7.8c-1.5-4-3.2-7.9-5-11.7c-0.6,0.7-1.2,1.6-1.7,2.5
				c-4.2,8.3-1.8,15.4,4.7,21.7c-1.6-0.5-2.8-1.1-3.8-2c-7.8-6.8-7.8-18.6-0.9-25.5c-2-3.9-4.2-7.7-6.5-11.4
				C294.3,82.7,292.9,91.8,295.7,103.6"/>
		</defs>
		<clipPath id="SVGID_00000008141822530112607190000018364725341386304437_">
			<use xlink:href="#SVGID_00000158744327229674775140000016001725021131324343_"  style="overflow:visible;"/>
		</clipPath>
		
			<linearGradient id="SVGID_00000122686149416055849670000017082672395311693453_" gradientUnits="userSpaceOnUse" x1="-6.2542" y1="515.9482" x2="-5.343" y2="515.9482" gradientTransform="matrix(156.044 276.3279 276.3279 -156.044 -141368.2031 82197.0156)">
			<stop  offset="0" style="stop-color:#D1BF84"/>
			<stop  offset="1" style="stop-color:#9F8554"/>
		</linearGradient>
		
			<polygon style="clip-path:url(#SVGID_00000008141822530112607190000018364725341386304437_);fill:url(#SVGID_00000122686149416055849670000017082672395311693453_);" points="
			311.8,63.5 337.8,109.4 298.9,131.4 273,85.4 		"/>
	</g>
	<g>
		<defs>
			<path id="SVGID_00000117665628978167306410000017882685315633523351_" d="M260.8,98.2L260.8,98.2c-1.8,1.7-6.7,8.1,1.5,18
				c3.1,3.8,7.1,7.7,11.3,11.9c14.8,14.7,34.8,34.6,40.1,69.1c1.2-3.6,2.3-7.3,3.2-11c-1.2-4.8-2.7-9.4-4.4-13.6
				c-1.9-4.8,5.2-14.2,4.1-16.4c-0.2-0.4-1.4,1.1-3,2.7c-2,1.9-4.6,3.9-6.7,2c-0.1-0.1-0.1-0.2-0.1-0.3c-3.1-5.5-6.5-10.5-10-15.1
				c-0.8-2.1-3.5-7.5-3.4-13.7c0-3.3,0.6-7.6-1.1-4.7c-1.2,2-1.8,4.6-1.8,3.6c0-2.7,0.5-6.3,2.1-10.2c3.2-7.7-7.2-17.2-7.6-16.9
				c-1.9,1.6-9.4,11.5-2.6,25.7c-1.7-1.7-3.4-3.4-5-5c-4.3-4.3-8.1-8-11-11.5c-0.9-1.1-1.6-2.1-2.1-3.1c0.5,0.1,1,0.2,1.5,0.2
				c4.1,0.1,7.5-2.8,7.7-6.6c0.1-3.8-3.1-7-7.2-7.1c-0.1,0-0.2,0-0.3,0C264,96.2,262.2,97,260.8,98.2"/>
		</defs>
		<clipPath id="SVGID_00000088818805274649871830000001344288052876687778_">
			<use xlink:href="#SVGID_00000117665628978167306410000017882685315633523351_"  style="overflow:visible;"/>
		</clipPath>
		
			<linearGradient id="SVGID_00000134250202309993438070000016875042085797505461_" gradientUnits="userSpaceOnUse" x1="-6.2542" y1="515.9218" x2="-5.343" y2="515.9218" gradientTransform="matrix(156.044 276.3279 276.3279 -156.044 -141396.7188 82213.1172)">
			<stop  offset="0" style="stop-color:#D1BF84"/>
			<stop  offset="1" style="stop-color:#9F8554"/>
		</linearGradient>
		
			<polygon style="clip-path:url(#SVGID_00000088818805274649871830000001344288052876687778_);fill:url(#SVGID_00000134250202309993438070000016875042085797505461_);" points="
			302.4,69 361.1,172.8 269.6,224.5 210.9,120.7 		"/>
	</g>
	<g>
		<defs>
			<path id="SVGID_00000125585938013033841410000009913341246865952955_" d="M309.4,124.4c-7.9,1.5-11.6,10.8-7.2,17.9
				c3.5,5.7,10.1,8,17.3,6c0.6-0.2,1.1-0.3,1.6-0.5c-0.1-2.6-0.2-5.2-0.4-7.7c-2.7,0.4-4.8-0.5-4.8-0.5c-1.5-0.7-2.7-2-3.5-4.3
				c3.9,0.6,7.9,1.2,7.3-4.4c-0.4-3.6-4.6-6.5-8.7-6.5C310.4,124.3,309.9,124.3,309.4,124.4"/>
		</defs>
		<clipPath id="SVGID_00000021079387834041028260000002154774745043069865_">
			<use xlink:href="#SVGID_00000125585938013033841410000009913341246865952955_"  style="overflow:visible;"/>
		</clipPath>
		
			<linearGradient id="SVGID_00000029016421465589379080000006746228163119250332_" gradientUnits="userSpaceOnUse" x1="-6.2542" y1="515.9357" x2="-5.343" y2="515.9357" gradientTransform="matrix(156.044 276.3279 276.3279 -156.044 -141378.7344 82202.9609)">
			<stop  offset="0" style="stop-color:#D1BF84"/>
			<stop  offset="1" style="stop-color:#9F8554"/>
		</linearGradient>
		
			<polygon style="clip-path:url(#SVGID_00000021079387834041028260000002154774745043069865_);fill:url(#SVGID_00000029016421465589379080000006746228163119250332_);" points="
			315.5,114.3 332.3,144.1 303.5,160.3 286.7,130.6 		"/>
	</g>
	<g>
		<defs>
			<path id="SVGID_00000114068162553857886710000003239770087494959543_" d="M176.6,6.9c-0.1,0-0.2,0-0.4,0c-0.4,0-0.8,0-1.3,0
				c5.3,16.4,23.8,30,18.5,26.6c-9.3-6-16.9-14.5-21.6-24.3c-0.6-1.2-1.2-1.8-1.8-2.2c-0.7,0-1.3,0.1-2,0.1
				c-2.7,1.8-4.8,9.8-4.6,13.2c0.5,10.9,9.4,15.6,11.5,18.7c0-3.1,3.1-6.2,3.1-9.2c4.2,10.3,16.8,24.6,29.3,16.4c0,0-1-2.1-1-3.1
				c36.2,11.9,34.6-16.4,33.5-18.5c-8.5,30.5-50.8,0.1-58.7-17.6C179.8,6.9,178.2,6.9,176.6,6.9z"/>
		</defs>
		<clipPath id="SVGID_00000086674568961869974660000006732926137511699896_">
			<use xlink:href="#SVGID_00000114068162553857886710000003239770087494959543_"  style="overflow:visible;"/>
		</clipPath>
		
			<linearGradient id="SVGID_00000170979575003474661660000009904137478479696817_" gradientUnits="userSpaceOnUse" x1="-6.2542" y1="515.9473" x2="-5.343" y2="515.9473" gradientTransform="matrix(156.044 276.3279 276.3279 -156.044 -141417.0156 82224.5781)">
			<stop  offset="0" style="stop-color:#D1BF84"/>
			<stop  offset="1" style="stop-color:#9F8554"/>
		</linearGradient>
		
			<polygon style="clip-path:url(#SVGID_00000086674568961869974660000006732926137511699896_);fill:url(#SVGID_00000170979575003474661660000009904137478479696817_);" points="
			223.6,-27.1 263.4,43.4 182.7,89 142.8,18.5 		"/>
	</g>
	<g>
		<defs>
			<path id="SVGID_00000055702679815909038510000003556137547351915436_" d="M219.7,28.1c-0.8-1.7-3.4-6.5-4.1-8.2
				c0.1-0.1,1.3,1.3,3.4,2.7c3.9,2.7,10.8,5.3,18.1-2.3c-11-5.2-22.9-9-35.2-11.2c1.7,1.7,3.8,3.9,11.9,6.4c0,0-5.2,1-17.4-7.3
				c-2.3-0.3-4.7-0.6-7.1-0.8c-0.6-0.1-1.2-0.1-1.8-0.1C189.8,10.8,204,29.1,219.7,28.1"/>
		</defs>
		<clipPath id="SVGID_00000093136729443208966160000006532475152204109454_">
			<use xlink:href="#SVGID_00000055702679815909038510000003556137547351915436_"  style="overflow:visible;"/>
		</clipPath>
		
			<linearGradient id="SVGID_00000098910467951815355240000010832105757624394417_" gradientUnits="userSpaceOnUse" x1="-6.2542" y1="515.9426" x2="-5.343" y2="515.9426" gradientTransform="matrix(156.044 276.3279 276.3279 -156.044 -141403.3594 82216.8672)">
			<stop  offset="0" style="stop-color:#D1BF84"/>
			<stop  offset="1" style="stop-color:#9F8554"/>
		</linearGradient>
		
			<polygon style="clip-path:url(#SVGID_00000093136729443208966160000006532475152204109454_);fill:url(#SVGID_00000098910467951815355240000010832105757624394417_);" points="
			225.1,-13.9 246.4,23.9 199.4,50.4 178.1,12.6 		"/>
	</g>
	<g>
		<defs>
			<path id="SVGID_00000000208322324553583680000015667473408505382806_" d="M120.4,18.1c-2.5,2.6-5.2,5.7-7.4,9.3
				c-6,9.9-8.8,22.2-9.4,22.4c-1.8,0.6-0.8-10.6,3-19.8c1.1-2.7,2.6-5.2,4-7.3c-13.5,6.9-25.9,15.9-36.5,26.5
				c-0.4,0.7-0.9,1.5-1.3,2.3c-6.6,12.7-9.2,29.4-9.7,27.5c-1.7-6.5-0.7-13.1,1-18.8c-14.1,17.3-24.3,38-29.2,60.6
				c8.1-16.9,23.8-32,45.2-43.5c55.4-29.8,74.2-60.2,78.8-69.3C145.5,9.6,132.6,13,120.4,18.1"/>
		</defs>
		<clipPath id="SVGID_00000029760047967862131680000008383652379908374958_">
			<use xlink:href="#SVGID_00000000208322324553583680000015667473408505382806_"  style="overflow:visible;"/>
		</clipPath>
		
			<linearGradient id="SVGID_00000078037454589150125430000004684488994297033904_" gradientUnits="userSpaceOnUse" x1="-6.2542" y1="515.9879" x2="-5.343" y2="515.9879" gradientTransform="matrix(156.044 276.3279 276.3279 -156.044 -141522.9375 82284.3906)">
			<stop  offset="0" style="stop-color:#D1BF84"/>
			<stop  offset="1" style="stop-color:#9F8554"/>
		</linearGradient>
		
			<polygon style="clip-path:url(#SVGID_00000029760047967862131680000008383652379908374958_);fill:url(#SVGID_00000078037454589150125430000004684488994297033904_);" points="
			129.1,-45.2 207.4,93.5 65,173.9 -13.3,35.2 		"/>
	</g>
	<g>
		<defs>
			<path id="SVGID_00000178174664457700335930000015071516217318065840_" d="M53,197c1.5-0.7,3-1.1,4.3-1.3c-1,0.8-2.3,1.6-3.8,2.3
				c-1.5,0.7-3,1.1-4.3,1.3C50.1,198.5,51.4,197.7,53,197 M47.1,189.5c0.1-1.6,0.4-3.1,0.8-4.3c0.2,1.1,0.2,2.6,0.1,4.2
				c-0.1,1.6-0.4,3.1-0.8,4.3C47,192.6,46.9,191.1,47.1,189.5 M95,74.8c-0.7,0.4-1.4,0.7-2.1,1.1c-10.2,5.3-22.6,11.5-34,21.5
				c-14,12.3-22.3,28.8-26.5,40.8c-0.4,4.4-0.6,8.9-0.6,13.4c0,41.7,17.7,79.3,45.9,105.7c6.2,1.8,12,0.9,17.3-1.5
				c-0.3,3-1.8,8.4-2.6,13.6c4,2.8,8,5.5,12.3,7.9c3.9-26.2,20-43.5,26.7-62.4c-2.1-2.6-4.2-5.1-6.4-7.7c-0.3-0.3-2.8,7.7-8.5,15.7
				c-6.1,8.5-16,17.1-30.7,15.5l-1.9-0.2c-4.6-0.8-9.1-2.4-13.3-4.6c-4.8-2.2-6.8-4.4-9.7-6.4c-2.5-2-6.7-6.8-6.5-6.9
				c-2.9-3.9-4.9-8.3-5.6-12.8c-0.4-2.5-0.5-4.9-0.1-7.2c3.8,1.2,7.5,0.9,10.5-0.9c3-1.9,4.8-5.1,5.4-9.1c-3.8-1.2-7.5-1-10.5,0.9
				c-2.6,1.6-4.3,4.2-5.1,7.4c1-4.3,3.2-8.4,6.8-11.9c1.6-1.6,3-3.3,4.2-4.9c0.4,0,0.7-0.2,1.2-0.7c4.2-4.6,5.4-10.2,4.6-16.2
				c-0.2-1.2-0.3-2.4-0.5-3.6c-0.2-1.3-0.4-2.4-0.6-3.5c-0.4-2-0.8-4-1.1-6c-0.2-0.9-0.3-1.9-0.5-2.8c0.1,0,0.2,0,0.3-0.1
				c0.7,1.9,1.4,3.7,2.1,5.6c1.6,4.6,3.2,9.2,3.4,14.2c0.2,4.8-1.3,9-4.7,12.6c-0.3,0.3-0.5,0.6-0.7,0.8c0.1,0.1,0.1,0.3,0.2,0.4
				c1.8-0.5,3.7-0.7,5.3-1.6c4.8-2.7,6.7-7.2,7.1-12.4c0.2-4.1-1.4-7.9-3-11.6c-3-7.2-7.2-13.9-8.8-21.7c-0.2,0.1-0.4,0.1-0.4,0.2
				c-4.5,6.3-8.7,12.7-11.1,20.1c-1.4,4.6-2.1,9.2-1,13.9c0.9,4.1,3.1,7.5,5.9,10.4c-1.1,1.6-2.4,3.1-3.9,4.7
				c-0.9,0.9-1.8,1.9-2.5,2.9c0.2-0.9,0.3-1.9,0.2-2.8c-0.1-3.3-1.7-6-4.2-7.8c-2.4,3.1-3.7,6.6-3.6,9.9c0.1,3.1,1.5,5.6,3.7,7.4
				c-1.7,4.3-2.2,9-1.4,13.7c-5.5-11.1-7.8-24.3-5.3-38.3c2.7-15.1,12.7-29,22.8-39.9c1.5-1.6-4.7-1.9-10.9-0.2
				c-6.9,1.9-13.9,5.9-13.4,5.4c12.2-12.2,29.3-10.4,30.4-11.4c10.3-9.8,19.3-15.8,19.3-15.8c10.2-7.3,18.8-14.4,26.1-21.2
				c0,0-18.5-3.8-38.8,4.6c-0.4,0.2,0.7-0.4,1-0.6c21.1-12,35.8-11.1,41.3-10.2c1.6,0.3,2.4,0.5,2.4,0.5c33.6-33.8,33.2-58,33.2-58
				S146.4,46.3,95,74.8"/>
		</defs>
		<clipPath id="SVGID_00000034085572553730886380000009299400996256492189_">
			<use xlink:href="#SVGID_00000178174664457700335930000015071516217318065840_"  style="overflow:visible;"/>
		</clipPath>
		
			<linearGradient id="SVGID_00000080893917329844873430000013961092193707729598_" gradientUnits="userSpaceOnUse" x1="-6.2542" y1="515.928" x2="-5.343" y2="515.928" gradientTransform="matrix(156.044 276.3279 276.3279 -156.044 -141546.2812 82297.5781)">
			<stop  offset="0" style="stop-color:#D1BF84"/>
			<stop  offset="1" style="stop-color:#9F8554"/>
		</linearGradient>
		
			<polygon style="clip-path:url(#SVGID_00000034085572553730886380000009299400996256492189_);fill:url(#SVGID_00000080893917329844873430000013961092193707729598_);" points="
			124.4,-29.5 262.9,215.7 61.3,329.5 -77.1,84.4 		"/>
	</g>
	<g>
		<defs>
			<path id="SVGID_00000151536342694196373020000007324805011983270560_" d="M250.6,275.9c3.1-1.9,6.1-3.8,9.1-5.9
				c-1.2-0.3-2.4-0.5-3.6-0.8c-0.9-0.2-1.9-0.5-2.8-0.7c0-0.1,0.1-0.2,0.1-0.3c2,0.1,4,0.2,5.9,0.3c0.8,0.1,1.5,0.1,2.3,0.2
				c2.6-1.9,5.2-3.9,7.7-6c-3.7-0.1-14.4-0.4-31.6-4.7C237.6,258.3,246.1,270.7,250.6,275.9"/>
		</defs>
		<clipPath id="SVGID_00000010295696043972581760000014560594396717585543_">
			<use xlink:href="#SVGID_00000151536342694196373020000007324805011983270560_"  style="overflow:visible;"/>
		</clipPath>
		
			<linearGradient id="SVGID_00000138538591647975425410000012375601263769457025_" gradientUnits="userSpaceOnUse" x1="-6.2542" y1="515.9655" x2="-5.343" y2="515.9655" gradientTransform="matrix(156.044 276.3279 276.3279 -156.044 -141484.9688 82262.9453)">
			<stop  offset="0" style="stop-color:#D1BF84"/>
			<stop  offset="1" style="stop-color:#9F8554"/>
		</linearGradient>
		
			<polygon style="clip-path:url(#SVGID_00000010295696043972581760000014560594396717585543_);fill:url(#SVGID_00000138538591647975425410000012375601263769457025_);" points="
			261.5,244.5 276.8,271.6 245.2,289.4 229.9,262.3 		"/>
	</g>
	<g>
		<defs>
			<path id="SVGID_00000080203002458053683100000016349592455617334166_" d="M200,294.4c6.7-1.1,13.3-2.6,19.6-4.6
				c14.6-12.6-6.1-36.9-2.5-33.6c13.1,11.6,12,25.8,11.6,30.4c3.4-1.3,6.7-2.7,9.9-4.2c-0.2-5.1-2.3-10.1-5.9-15.2
				c-4.9-7-18-25.4-12.6-44.3C194.3,253.1,196.4,290.9,200,294.4"/>
		</defs>
		<clipPath id="SVGID_00000031175924372190760500000009415110630387873211_">
			<use xlink:href="#SVGID_00000080203002458053683100000016349592455617334166_"  style="overflow:visible;"/>
		</clipPath>
		
			<linearGradient id="SVGID_00000059284285185729110740000011518487014189739454_" gradientUnits="userSpaceOnUse" x1="-6.2542" y1="516.0048" x2="-5.343" y2="516.0048" gradientTransform="matrix(156.044 276.3279 276.3279 -156.044 -141520.2188 82282.8594)">
			<stop  offset="0" style="stop-color:#D1BF84"/>
			<stop  offset="1" style="stop-color:#9F8554"/>
		</linearGradient>
		
			<polygon style="clip-path:url(#SVGID_00000031175924372190760500000009415110630387873211_);fill:url(#SVGID_00000059284285185729110740000011518487014189739454_);" points="
			227.9,203.8 269.3,277.1 205,313.4 163.7,240.1 		"/>
	</g>
	<g>
		<defs>
			<path id="SVGID_00000066513753857551032510000016348311439449998466_" d="M115.3,265.1c-3.8,4.7-6.2,9.4-6.8,14.3
				c3.1,1.7,6.3,3.2,9.6,4.6c0.2-4.1,2-7.9,5.1-10.1c4.1-2.8,10.2-2.4,14.5,0.9c3.8,3,4.9,8,2.2,11.4c-1.1,1.3-3.1,2.2-4.9,2.5
				c-1.1,0.2-2.4-1.1-2.7-1.2c9.7,0,6-11.5-1.4-10c-2.4,0.5-8,4.7-4.7,9.7c6.8,2.5,13.9,4.6,21.2,6.1c3.2-2.5,5.4-6.7,5.5-11.3
				c0.2-5.6-1.9-10.3-5.6-14.2c5.4-9.4,5-11-4.8-18.3c0.1-0.7,0.3-1.4,0.5-2.1c1.1-6.2-1.6-12.7-6.4-16.3
				C140.6,250.4,120.7,258.4,115.3,265.1"/>
		</defs>
		<clipPath id="SVGID_00000040556847632317639190000006756640775086587542_">
			<use xlink:href="#SVGID_00000066513753857551032510000016348311439449998466_"  style="overflow:visible;"/>
		</clipPath>
		
			<linearGradient id="SVGID_00000154397341793233602400000002443627412281060507_" gradientUnits="userSpaceOnUse" x1="-6.2542" y1="516.0193" x2="-5.343" y2="516.0193" gradientTransform="matrix(156.044 276.3279 276.3279 -156.044 -141590.8594 82322.75)">
			<stop  offset="0" style="stop-color:#D1BF84"/>
			<stop  offset="1" style="stop-color:#9F8554"/>
		</linearGradient>
		
			<polygon style="clip-path:url(#SVGID_00000040556847632317639190000006756640775086587542_);fill:url(#SVGID_00000154397341793233602400000002443627412281060507_);" points="
			142.2,212.1 179.6,278.3 119.2,312.4 81.8,246.2 		"/>
	</g>
	<g>
		<defs>
			<path id="SVGID_00000119103532806015767820000008773198660666358414_" d="M117,253.1c17.8-5.5,12.4-21.9,12.4-21.9
				C124.3,236.1,117,253.1,117,253.1"/>
		</defs>
		<clipPath id="SVGID_00000124850886555836202250000008849987628969161885_">
			<use xlink:href="#SVGID_00000119103532806015767820000008773198660666358414_"  style="overflow:visible;"/>
		</clipPath>
		
			<linearGradient id="SVGID_00000033335616070881216650000013714128480677105849_" gradientUnits="userSpaceOnUse" x1="-6.2542" y1="516.0152" x2="-5.343" y2="516.0152" gradientTransform="matrix(156.044 276.3279 276.3279 -156.044 -141584.7812 82319.3203)">
			<stop  offset="0" style="stop-color:#D1BF84"/>
			<stop  offset="1" style="stop-color:#9F8554"/>
		</linearGradient>
		
			<polygon style="clip-path:url(#SVGID_00000124850886555836202250000008849987628969161885_);fill:url(#SVGID_00000033335616070881216650000013714128480677105849_);" points="
			130.5,223.6 144.1,247.8 121.3,260.8 107.6,236.5 		"/>
	</g>
	<g>
		<defs>
			<path id="SVGID_00000137820687545510036850000000320105777005281693_" d="M81.3,155.9c-0.8-0.1-5-1.4-5-1.4
				c-2,8.6,5.5,20.9,13.3,25.1c-1.2-0.1-2.5,0.4-3.8,0.9c-1.3,0.5-2.6,1-3.8,0.9c2.3,1.9,5.3,9.5,14,10.7c2.8,0.4,11.6-1.3,13.1-3.4
				c0.1-0.5-33.9-34.5-20.4-65.1c0,0,0-0.1,0-0.1C87.9,123.6,71.3,138,81.3,155.9"/>
		</defs>
		<clipPath id="SVGID_00000162310249219000139680000009021843245933746351_">
			<use xlink:href="#SVGID_00000137820687545510036850000000320105777005281693_"  style="overflow:visible;"/>
		</clipPath>
		
			<linearGradient id="SVGID_00000072977105134921727210000016269070773638803362_" gradientUnits="userSpaceOnUse" x1="-6.2542" y1="516.0092" x2="-5.343" y2="516.0092" gradientTransform="matrix(156.044 276.3279 276.3279 -156.044 -141574.125 82313.2969)">
			<stop  offset="0" style="stop-color:#D1BF84"/>
			<stop  offset="1" style="stop-color:#9F8554"/>
		</linearGradient>
		
			<polygon style="clip-path:url(#SVGID_00000162310249219000139680000009021843245933746351_);fill:url(#SVGID_00000072977105134921727210000016269070773638803362_);" points="
			100,107.4 138.6,175.8 80.5,208.7 41.8,140.2 		"/>
	</g>
	<g>
		<defs>
			<path id="SVGID_00000074404914248283959650000000976767072381119649_" d="M158.5,41.7c-2.3,0-3.6,0.8-4.5,3.2
				c-1.7,4.6-2.5,9,1,13.2c-4.4,1.2-6.7,2.8-7.1,5.8c-0.2,1.9,0.7,3.9,1.1,5.9c0.3,0,0.7,0.1,1,0.1c1.2-3.4,3.1-3.1,5.2-1.2
				c1,0.9,2,1.7,3.1,2.4c5.6,3.8,14.1,5.3,19.3,3.3c-8.3-7-11.1-10.7-12.6-16.1c13.2,15.1,18.6,17.9,28,14.7c-2.1-0.3-4.3-0.5-6.4-1
				c-6.3-1.5-10.6-6.4-10.7-13.1c-0.1-2.2,0.7-4.8,2.1-6.4c1.4-1.7,3.9-2.5,5.9-3.7c-3.6-5.1-7.6-5.5-12.5-0.9
				c-2.9-4.7-7.3-6.2-12.5-6.2C158.8,41.7,158.7,41.7,158.5,41.7"/>
		</defs>
		<clipPath id="SVGID_00000180344321610236182820000010833797105404107429_">
			<use xlink:href="#SVGID_00000074404914248283959650000000976767072381119649_"  style="overflow:visible;"/>
		</clipPath>
		
			<linearGradient id="SVGID_00000119818857513544973010000016108540971510771843_" gradientUnits="userSpaceOnUse" x1="-6.2542" y1="515.9796" x2="-5.343" y2="515.9796" gradientTransform="matrix(156.044 276.3279 276.3279 -156.044 -141462.7812 82250.4219)">
			<stop  offset="0" style="stop-color:#D1BF84"/>
			<stop  offset="1" style="stop-color:#9F8554"/>
		</linearGradient>
		
			<polygon style="clip-path:url(#SVGID_00000180344321610236182820000010833797105404107429_);fill:url(#SVGID_00000119818857513544973010000016108540971510771843_);" points="
			182.1,22.3 207.9,68 158.7,95.8 132.9,50.1 		"/>
	</g>
	<g>
		<defs>
			<path id="SVGID_00000003819369780328971870000010202187347267817660_" d="M83,201.5c-5.4-3.2-8.7-3.2-13.9-0.4
				c-0.7,0.4-1.5,0.1-2.4-0.3c-2-0.7-3.7-1.5-2.4,6.7c0.9,5.4,2.1,10.1,7.7,12.4c-3.7,3.5,1.7,8.9,5.8,10.3c1.4,0.4,4.6,1.6,6,1.7
				c7.4,0.9,21.2,0.1,26-9.5c-4.5,1.6-14.2,4-25-2.4c-4.4-2.6,0.2-3,6.7-0.5c11.6,4.5,20.1,0.7,25.5-4.7c-2.2,0.7-4.5,1.7-6.8,2.3
				c-6.9,1.8-13.7-0.8-17.3-7.3c-1.2-2.1-1.8-5-1.3-7.3c0.5-2.4,2.5-4.5,3.9-6.7c-2-1-3.7-1.5-5.3-1.5
				C87.1,194.4,84.6,196.7,83,201.5"/>
		</defs>
		<clipPath id="SVGID_00000002380027833446297590000007936110425186230200_">
			<use xlink:href="#SVGID_00000003819369780328971870000010202187347267817660_"  style="overflow:visible;"/>
		</clipPath>
		
			<linearGradient id="SVGID_00000080195128820410632720000004391006671855170484_" gradientUnits="userSpaceOnUse" x1="-6.2542" y1="516.0103" x2="-5.343" y2="516.0103" gradientTransform="matrix(156.044 276.3279 276.3279 -156.044 -141598.3281 82326.9688)">
			<stop  offset="0" style="stop-color:#D1BF84"/>
			<stop  offset="1" style="stop-color:#9F8554"/>
		</linearGradient>
		
			<polygon style="clip-path:url(#SVGID_00000002380027833446297590000007936110425186230200_);fill:url(#SVGID_00000080195128820410632720000004391006671855170484_);" points="
			104,171.2 133.6,223.6 76.1,256 46.5,203.7 		"/>
	</g>
	<g>
		<defs>
			<path id="SVGID_00000071524456099082548850000002127891776340586642_" d="M101.8,202.6c0,4,3.2,7.3,7.3,7.3s7.3-3.3,7.3-7.3
				c0-4-3.2-7.3-7.3-7.3S101.8,198.6,101.8,202.6"/>
		</defs>
		<clipPath id="SVGID_00000006665644265153536930000008539133365524679072_">
			<use xlink:href="#SVGID_00000071524456099082548850000002127891776340586642_"  style="overflow:visible;"/>
		</clipPath>
		
			<linearGradient id="SVGID_00000090260504543877148380000004721451635383367347_" gradientUnits="userSpaceOnUse" x1="-6.2542" y1="516.0056" x2="-5.343" y2="516.0056" gradientTransform="matrix(156.044 276.3279 276.3279 -156.044 -141577.9062 82315.4297)">
			<stop  offset="0" style="stop-color:#D1BF84"/>
			<stop  offset="1" style="stop-color:#9F8554"/>
		</linearGradient>
		
			<polygon style="clip-path:url(#SVGID_00000006665644265153536930000008539133365524679072_);fill:url(#SVGID_00000090260504543877148380000004721451635383367347_);" points="
			112.8,189.1 122.5,206.3 105.3,216 95.6,198.8 		"/>
	</g>
	<g>
		<defs>
			<path id="SVGID_00000176028866501123227860000000056259529175563140_" d="M207.8,55.7c-4.1,7.9-6.6,9.2-14.9,6.1
				c-2.9-1.1-5.7-2.4-8.6-3.7c2.8,6.5,14.6,13.6,22.6,13.5c9.8-0.1,17.6-4.2,22.6-12.9c0.8-1.4,1.2-3.4,0.9-5
				c-0.3-1.7-1.2-3.8-2.5-4.6c-0.9-0.6-3.3,0.4-4.5,1.3c-2.1,1.6-3.8,3.7-6.5,6.4c-0.5-2.8-0.8-4.6-1.6-8.7
				C212.1,51.3,209.2,53.1,207.8,55.7"/>
		</defs>
		<clipPath id="SVGID_00000164503253869680851570000007927125219168117658_">
			<use xlink:href="#SVGID_00000176028866501123227860000000056259529175563140_"  style="overflow:visible;"/>
		</clipPath>
		
			<linearGradient id="SVGID_00000057854150566258901570000004755416482029941173_" gradientUnits="userSpaceOnUse" x1="-6.2542" y1="515.9504" x2="-5.343" y2="515.9504" gradientTransform="matrix(156.044 276.3279 276.3279 -156.044 -141427 82230.2188)">
			<stop  offset="0" style="stop-color:#D1BF84"/>
			<stop  offset="1" style="stop-color:#9F8554"/>
		</linearGradient>
		
			<polygon style="clip-path:url(#SVGID_00000164503253869680851570000007927125219168117658_);fill:url(#SVGID_00000057854150566258901570000004755416482029941173_);" points="
			219.5,28.2 240.8,66.1 195.5,91.7 174.1,53.8 		"/>
	</g>
	<g>
		<defs>
			<path id="SVGID_00000065036589339967632860000010878781408527424392_" d="M128.3,86.3c14.7-7.9,30.9-7.5,30.9-7.5
				c-5.2-2.5-9.7-3.5-13.4-3.5C133.1,75.3,128.3,86.3,128.3,86.3"/>
		</defs>
		<clipPath id="SVGID_00000103233267079403381800000008681289716512918148_">
			<use xlink:href="#SVGID_00000065036589339967632860000010878781408527424392_"  style="overflow:visible;"/>
		</clipPath>
		
			<linearGradient id="SVGID_00000107555972659259219730000000727800941312126352_" gradientUnits="userSpaceOnUse" x1="-6.2542" y1="515.9809" x2="-5.343" y2="515.9809" gradientTransform="matrix(156.044 276.3279 276.3279 -156.044 -141492.6719 82267.3047)">
			<stop  offset="0" style="stop-color:#D1BF84"/>
			<stop  offset="1" style="stop-color:#9F8554"/>
		</linearGradient>
		
			<polygon style="clip-path:url(#SVGID_00000103233267079403381800000008681289716512918148_);fill:url(#SVGID_00000107555972659259219730000000727800941312126352_);" points="
			151.7,62.1 163.9,83.6 135.7,99.5 123.6,77.9 		"/>
	</g>
	<g>
		<defs>
			<rect id="SVGID_00000134966218191252204680000007523394660352727684_" x="8.6" y="6.9" width="335.5" height="486.3"/>
		</defs>
		<clipPath id="SVGID_00000032625794554350549660000010694596940108711088_">
			<use xlink:href="#SVGID_00000134966218191252204680000007523394660352727684_"  style="overflow:visible;"/>
		</clipPath>
		<path style="clip-path:url(#SVGID_00000032625794554350549660000010694596940108711088_);fill:#323031;" d="M9.2,372.7
			c1.6-0.1,2.8-0.3,3.5-0.6c1.2-0.6,1.8-1.8,1.8-3.6v-29.1c0-1.7-0.6-2.9-1.7-3.5c-0.7-0.4-1.9-0.6-3.6-0.7v-1.5h18.5
			c3.6,0,6.5,0.4,8.9,1.2c4.5,1.5,6.7,4.4,6.7,8.4c0,2.5-0.9,4.4-2.7,5.9c-1.8,1.5-3.8,2.4-5.9,2.8v0.6c2.2,0.4,4.2,1.2,5.8,2.2
			c3.2,2,4.8,4.8,4.8,8.3c0,3.3-1.5,6-4.6,8.1c-3.1,2.1-7.1,3.1-12.2,3.1H9.2V372.7z M31.5,350.1c1.3-1.2,1.9-3.4,1.9-6.4
			c0-2.3-0.4-4.2-1.2-5.8c-0.8-1.6-2.4-2.3-4.8-2.3c-1.3,0-2.1,0.2-2.6,0.6c-0.5,0.4-0.7,1.2-0.7,2.3v13.5
			C27.8,351.9,30.3,351.3,31.5,350.1 M24.5,371c0.5,0.9,1.4,1.3,2.8,1.3c2.8,0,4.8-0.8,6-2.3c1.1-1.5,1.7-3.7,1.7-6.6
			c0-4.3-1.3-7.1-3.8-8.5c-1.5-0.9-3.9-1.3-7.2-1.2v15C24.1,369.7,24.2,370.5,24.5,371"/>
		<path style="clip-path:url(#SVGID_00000032625794554350549660000010694596940108711088_);fill:#323031;" d="M49.6,372.7
			c1.4-0.1,2.6-0.8,3.5-2c0.6-0.8,1.4-2.4,2.4-5l13.3-32.8h1.7l13.4,31.5c1.5,3.5,2.6,5.8,3.4,6.8c0.7,1,1.8,1.5,3.2,1.5v1.5H71.1
			v-1.5c2-0.1,3.2-0.2,3.9-0.5c0.6-0.3,0.9-0.9,0.9-1.9c0-0.5-0.2-1.2-0.5-2.1c-0.2-0.6-0.5-1.3-0.8-2.1l-1.5-3.6H59.6
			c-0.9,2.4-1.4,3.9-1.7,4.7c-0.5,1.5-0.8,2.7-0.8,3.4c0,0.9,0.6,1.5,1.7,1.9c0.7,0.2,1.7,0.3,3.1,0.4v1.5H49.6V372.7z M72.2,360.1
			l-5.8-13.9h-0.5l-5.4,13.9H72.2z"/>
		<path style="clip-path:url(#SVGID_00000032625794554350549660000010694596940108711088_);fill:#323031;" d="M93.3,372.7
			c1.6-0.1,2.8-0.3,3.5-0.6c1.2-0.6,1.8-1.8,1.8-3.6v-29.1c0-1.7-0.6-2.9-1.7-3.5c-0.7-0.4-1.9-0.6-3.6-0.7v-1.5h21v1.5
			c-2.4,0.1-4.1,0.4-4.9,1c-0.8,0.6-1.2,2.1-1.2,4.5V369c0,1.3,0.3,2.2,1,2.6c0.7,0.4,2,0.6,4.1,0.6c3.6,0,6.6-0.8,9.1-2.4
			c2.5-1.6,4.6-4.7,6.3-9.3h1.8l-2.4,13.6H93.3V372.7z"/>
		<path style="clip-path:url(#SVGID_00000032625794554350549660000010694596940108711088_);fill:#323031;" d="M133.6,372.7
			c1.6-0.1,2.8-0.3,3.5-0.6c1.2-0.6,1.8-1.8,1.8-3.6v-29.1c0-1.7-0.6-2.9-1.7-3.5c-0.7-0.4-1.9-0.6-3.6-0.7v-1.5h21v1.5
			c-2.4,0.1-4.1,0.4-4.9,1c-0.8,0.6-1.2,2.1-1.2,4.5V369c0,1.3,0.3,2.2,1,2.6c0.7,0.4,2,0.6,4.1,0.6c3.6,0,6.6-0.8,9.1-2.4
			c2.5-1.6,4.6-4.7,6.3-9.3h1.8l-2.4,13.6h-34.8V372.7z"/>
		<path style="clip-path:url(#SVGID_00000032625794554350549660000010694596940108711088_);fill:#323031;" d="M211.2,338.6
			c4.1,4,6.2,9.2,6.2,15.5c0,6.3-2.1,11.5-6.2,15.5c-4,3.9-9.1,5.9-15.1,5.9c-6.4,0-11.6-2.1-15.7-6.4c-3.8-4-5.7-8.9-5.7-14.6
			c0-6.3,2-11.5,5.9-15.5c4-4.1,9.1-6.2,15.4-6.2C202.2,332.8,207.2,334.7,211.2,338.6 M205.4,365.4c0.9-2.9,1.3-6.7,1.3-11.3
			c0-6.4-1-11.2-2.9-14.4c-1.9-3.2-4.5-4.9-7.8-4.9c-4.5,0-7.6,2.7-9.3,8.1c-0.9,2.9-1.3,6.6-1.3,11.2c0,4.7,0.5,8.4,1.3,11.3
			c1.7,5.3,4.8,8,9.3,8C200.6,373.4,203.7,370.7,205.4,365.4"/>
		<path style="clip-path:url(#SVGID_00000032625794554350549660000010694596940108711088_);fill:#323031;" d="M258.2,338.6
			c4.1,4,6.2,9.2,6.2,15.5c0,6.3-2.1,11.5-6.2,15.5c-4,3.9-9.1,5.9-15.1,5.9c-6.4,0-11.6-2.1-15.7-6.4c-3.8-4-5.7-8.9-5.7-14.6
			c0-6.3,2-11.5,5.9-15.5c4-4.1,9.1-6.2,15.4-6.2C249.1,332.8,254.2,334.7,258.2,338.6 M252.3,365.4c0.9-2.9,1.3-6.7,1.3-11.3
			c0-6.4-1-11.2-2.9-14.4c-1.9-3.2-4.5-4.9-7.8-4.9c-4.5,0-7.6,2.7-9.3,8.1c-0.9,2.9-1.3,6.6-1.3,11.2c0,4.7,0.5,8.4,1.3,11.3
			c1.7,5.3,4.8,8,9.3,8C247.6,373.4,250.7,370.7,252.3,365.4"/>
		<path style="clip-path:url(#SVGID_00000032625794554350549660000010694596940108711088_);fill:#323031;" d="M267.8,372.7
			c2.2-0.1,3.7-0.5,4.3-1.3c0.6-0.8,1-2,1-3.5v-28.4c-1.8-2.1-3-3.3-3.4-3.6c-0.4-0.4-1-0.6-1.8-0.7v-1.5h12.7l20.6,25.1h0.3v-17.6
			c0-2-0.4-3.5-1.1-4.4c-0.7-0.9-2.2-1.4-4.4-1.6v-1.5h12.9v1.5c-1.9,0.3-3.1,0.7-3.8,1.3c-0.6,0.5-1,1.7-1,3.5v35.4h-1.7
			l-26.4-32.1h-0.4v23.5c0,1.8,0.3,3.2,0.8,3.9c0.8,1.2,2.4,1.9,4.9,2v1.5h-13.6V372.7z"/>
		<path style="clip-path:url(#SVGID_00000032625794554350549660000010694596940108711088_);fill:#323031;" d="M312.5,360.2h1.7
			c1,4.5,2.5,7.7,4.6,9.8c2.1,2,4.6,3.1,7.3,3.1c2.7,0,4.6-0.7,5.7-2.1c1.1-1.4,1.7-2.9,1.7-4.4c0-1.8-0.6-3.3-1.8-4.4
			c-0.8-0.7-2.4-1.7-4.7-2.9l-3.8-1.9c-3.8-1.9-6.5-3.8-8-5.7c-1.6-1.9-2.3-4.2-2.3-6.9c0-2.9,1-5.7,3.1-8.2
			c2.1-2.5,5.2-3.8,9.5-3.8c2.2,0,4.3,0.3,6.3,1c2,0.7,3.2,1,3.5,1c0.7,0,1.1-0.2,1.4-0.6c0.3-0.4,0.5-0.9,0.6-1.5h1.8v13.1h-1.7
			c-0.8-3-2.2-5.6-4.1-7.8c-2-2.2-4.4-3.3-7.2-3.3c-2,0-3.6,0.6-4.7,1.7c-1.2,1.1-1.7,2.4-1.7,4c0,1.9,0.5,3.3,1.6,4.3
			c1.1,1,3.4,2.4,7.1,4.2l4.4,2.2c2,1,3.5,2.1,4.7,3.3c2.2,2.3,3.3,5,3.3,8.3c0,3-1.2,5.9-3.5,8.6c-2.4,2.7-6.1,4-11.3,4
			c-1.2,0-2.4-0.1-3.6-0.3c-1.2-0.2-2.4-0.6-3.6-1l-1.2-0.4c-0.3-0.1-0.5-0.1-0.8-0.2c-0.2,0-0.5-0.1-0.6-0.1c-0.6,0-1,0.2-1.3,0.5
			c-0.2,0.4-0.4,0.9-0.6,1.5h-1.7V360.2z"/>
		<path style="clip-path:url(#SVGID_00000032625794554350549660000010694596940108711088_);fill:#323031;" d="M12.6,397.1
			c2.5-2.4,5.5-3.5,9.1-3.5c3.6,0,6.7,1.2,9.1,3.6c2.7,2.6,4,6,4,10.3c0,4.3-1.4,7.8-4.1,10.4c-2.5,2.3-5.5,3.4-9,3.4
			c-3.8,0-6.9-1.3-9.4-3.8c-2.5-2.6-3.8-5.9-3.8-10C8.6,403.1,9.9,399.6,12.6,397.1 M15.6,416.7c1.7,2,3.7,3,6.1,3
			c2.4,0,4.4-1,6.1-2.9c1.7-2,2.5-5.1,2.5-9.4c0-4.4-0.8-7.5-2.5-9.5c-1.7-1.9-3.7-2.9-6-2.9c-2.4,0-4.4,1-6.1,3
			c-1.7,2-2.5,5.1-2.5,9.4C13.1,411.6,14,414.7,15.6,416.7"/>
		<path style="clip-path:url(#SVGID_00000032625794554350549660000010694596940108711088_);fill:#323031;" d="M48.4,394.1v0.7
			c-1,0-1.7,0.1-2.1,0.2c-0.6,0.2-1,0.6-1,1.3c0,0.3,0.1,0.8,0.3,1.4c0.2,0.6,0.7,1.6,1.3,3l6.3,14l5.7-15.1
			c0.3-0.7,0.4-1.2,0.6-1.7c0.1-0.5,0.2-0.8,0.2-1.1c0-0.8-0.3-1.3-1-1.6c-0.4-0.2-1-0.3-1.9-0.3v-0.7h8.2v0.7
			c-0.8,0.1-1.5,0.3-1.9,0.7c-0.6,0.5-1.2,1.5-1.8,3.1l-8.9,22.5h-0.6L42,399c-0.8-1.9-1.5-3-2-3.5c-0.5-0.5-1.2-0.7-2.2-0.8v-0.7
			H48.4z"/>
		<path style="clip-path:url(#SVGID_00000032625794554350549660000010694596940108711088_);fill:#323031;" d="M67.3,419.9
			c1.5-0.2,2.4-0.4,2.9-0.8c0.4-0.4,0.7-1.3,0.7-2.8v-17.8c0-1.4-0.2-2.4-0.6-2.8c-0.4-0.4-1.4-0.7-2.9-0.8v-0.7h21.3l0.1,5.7h-1
			c-0.3-1.8-0.8-2.9-1.5-3.4c-0.7-0.5-2.2-0.8-4.5-0.8h-5.5c-0.6,0-1,0.1-1.1,0.3c-0.1,0.2-0.2,0.5-0.2,1.1v8.9h6.2
			c1.7,0,2.8-0.3,3.3-0.8c0.5-0.5,0.8-1.5,1.1-3.1h0.9v9.3h-0.9c-0.3-1.6-0.7-2.6-1.2-3.1c-0.5-0.5-1.6-0.8-3.2-0.8h-6.2v9.9
			c0,0.8,0.3,1.3,0.8,1.4c0.5,0.1,2,0.2,4.5,0.2c2.7,0,4.7-0.3,6-0.9c1.3-0.6,2.5-2,3.5-4.3h1.1l-1.8,6.8H67.3V419.9z"/>
		<path style="clip-path:url(#SVGID_00000032625794554350549660000010694596940108711088_);fill:#323031;" d="M92.6,419.9
			c1.5-0.1,2.5-0.4,2.9-0.9c0.4-0.5,0.6-1.5,0.6-3.2v-17.4c0-1.4-0.2-2.3-0.6-2.8c-0.4-0.4-1.4-0.7-2.8-0.8v-0.7h11.1
			c2.3,0,4.2,0.3,5.8,0.9c2.9,1.1,4.4,3.1,4.4,6.1c0,2-0.6,3.5-1.9,4.6c-1.3,1.1-3.1,1.8-5.3,2.1l8.3,10.2c0.5,0.6,1,1.1,1.5,1.4
			c0.5,0.3,1.2,0.5,2,0.5v0.7h-6.5l-10-12.3l-1.8,0.1v7.9c0,1.5,0.2,2.4,0.7,2.8c0.5,0.4,1.4,0.7,2.9,0.8v0.7H92.6V419.9z
			 M106.3,406c2.1-0.9,3.2-2.5,3.2-4.9c0-2.3-1-3.9-2.9-4.7c-1-0.5-2.4-0.7-4.1-0.7c-1.1,0-1.8,0.1-2.1,0.2
			c-0.3,0.2-0.4,0.5-0.4,1.1v9.9C103,406.8,105.1,406.5,106.3,406"/>
		<path style="clip-path:url(#SVGID_00000032625794554350549660000010694596940108711088_);fill:#323031;" d="M131,419.9
			c1.7-0.2,2.7-0.5,3.2-1.1c0.5-0.6,0.7-1.9,0.7-4v-16.3c0-1.4-0.2-2.4-0.7-2.8c-0.5-0.4-1.5-0.7-3.1-0.8v-0.7h7.9l9.2,20l9-20h8
			v0.7c-1.5,0.1-2.4,0.4-2.9,0.8c-0.4,0.4-0.6,1.4-0.6,2.8v17.8c0,1.5,0.2,2.4,0.6,2.8c0.4,0.4,1.4,0.7,2.9,0.8v0.7h-11.2v-0.7
			c1.6-0.1,2.6-0.4,3-0.9c0.4-0.4,0.6-1.5,0.6-3.2v-18l-10.3,22.8h-0.5l-10.1-21.9v16c0,2.2,0.3,3.6,1,4.3c0.4,0.4,1.3,0.7,2.8,0.9
			v0.7H131V419.9z"/>
		<path style="clip-path:url(#SVGID_00000032625794554350549660000010694596940108711088_);fill:#323031;" d="M179,394.1v0.7
			c-0.9,0-1.6,0-2.1,0.2c-0.5,0.2-0.7,0.5-0.7,1.1c0,0.2,0,0.4,0.1,0.6c0.1,0.3,0.3,0.6,0.5,1l5.9,8.6l5.8-8.8
			c0.2-0.4,0.4-0.7,0.5-0.9c0.1-0.2,0.1-0.4,0.1-0.5c0-0.6-0.3-1-0.9-1.1c-0.4-0.1-1-0.2-1.9-0.2v-0.7h8.8v0.7
			c-0.8,0-1.5,0.3-2.2,0.7c-1,0.7-2.1,2-3.3,3.9l-5.9,9v7.8c0,1.6,0.3,2.5,0.8,2.9c0.5,0.4,1.6,0.6,3.4,0.7v0.7h-12.2v-0.7
			c1.8-0.1,2.9-0.4,3.4-0.8c0.4-0.4,0.7-1.5,0.7-3.3v-7l-5.2-7.7c-1.8-2.6-3.1-4.3-3.8-5.1c-0.7-0.8-1.6-1.2-2.7-1.2v-0.7H179z"/>
		<path style="clip-path:url(#SVGID_00000032625794554350549660000010694596940108711088_);fill:#323031;" d="M192.8,420.6v-0.7
			c1-0.1,1.8-0.5,2.3-1.2c0.5-0.7,1.4-2.5,2.6-5.4l8.3-19.7h0.8l10,22.7c0.7,1.5,1.2,2.4,1.6,2.8c0.4,0.4,1.1,0.6,2,0.7v0.7h-10.2
			v-0.7c1.2-0.1,1.9-0.2,2.3-0.4c0.3-0.1,0.5-0.5,0.5-1.1c0-0.2-0.1-0.5-0.2-1c-0.1-0.5-0.3-1-0.5-1.6l-1.6-3.9h-10.6
			c-1,2.6-1.7,4.2-1.9,4.8c-0.2,0.6-0.3,1-0.3,1.4c0,0.7,0.3,1.1,0.8,1.4c0.3,0.2,1,0.3,1.9,0.3v0.7H192.8z M210.1,410.3l-4.6-11
			l-4.6,11H210.1z"/>
		<path style="clip-path:url(#SVGID_00000032625794554350549660000010694596940108711088_);fill:#323031;" d="M222.4,419.9
			c1.7-0.2,2.7-0.5,3.2-1.1c0.5-0.6,0.7-1.9,0.7-4V397l-0.5-0.6c-0.6-0.7-1.1-1.1-1.5-1.3c-0.4-0.2-1-0.3-1.8-0.3v-0.7h6.8
			l15.5,19.2v-13.3c0-2.2-0.3-3.6-1-4.3c-0.4-0.4-1.4-0.7-2.9-0.8v-0.7h9.4v0.7c-1.5,0.2-2.5,0.5-3.1,1.1c-0.5,0.6-0.8,1.9-0.8,4
			v21.1h-0.7l-17.7-22v15.6c0,2.2,0.3,3.6,1,4.3c0.4,0.4,1.3,0.7,2.8,0.9v0.7h-9.4V419.9z"/>
		<path style="clip-path:url(#SVGID_00000032625794554350549660000010694596940108711088_);fill:#323031;" d="M252.2,419.9
			c1.7-0.2,2.7-0.5,3.2-1.1c0.5-0.6,0.7-1.9,0.7-4v-16.3c0-1.4-0.2-2.4-0.7-2.8c-0.5-0.4-1.5-0.7-3.1-0.8v-0.7h7.9l9.2,20l9-20h8
			v0.7c-1.5,0.1-2.4,0.4-2.9,0.8c-0.4,0.4-0.6,1.4-0.6,2.8v17.8c0,1.5,0.2,2.4,0.6,2.8c0.4,0.4,1.4,0.7,2.9,0.8v0.7h-11.2v-0.7
			c1.6-0.1,2.6-0.4,3-0.9c0.4-0.4,0.6-1.5,0.6-3.2v-18l-10.3,22.8h-0.5l-10.1-21.9v16c0,2.2,0.3,3.6,1,4.3c0.4,0.4,1.3,0.7,2.8,0.9
			v0.7h-9.4V419.9z"/>
		<path style="clip-path:url(#SVGID_00000032625794554350549660000010694596940108711088_);fill:#323031;" d="M288.8,420.6v-0.7
			c1-0.1,1.8-0.5,2.3-1.2c0.5-0.7,1.4-2.5,2.6-5.4l8.3-19.7h0.8l10,22.7c0.7,1.5,1.2,2.4,1.6,2.8c0.4,0.4,1.1,0.6,2,0.7v0.7h-10.2
			v-0.7c1.2-0.1,1.9-0.2,2.3-0.4c0.3-0.1,0.5-0.5,0.5-1.1c0-0.2-0.1-0.5-0.2-1c-0.1-0.5-0.3-1-0.5-1.6l-1.6-3.9h-10.6
			c-1,2.6-1.7,4.2-1.9,4.8c-0.2,0.6-0.3,1-0.3,1.4c0,0.7,0.3,1.1,0.8,1.4c0.3,0.2,1,0.3,1.9,0.3v0.7H288.8z M306,410.3l-4.6-11
			l-4.6,11H306z"/>
		<path style="clip-path:url(#SVGID_00000032625794554350549660000010694596940108711088_);fill:#323031;" d="M318.4,419.9
			c1.5-0.1,2.5-0.4,2.9-0.9c0.4-0.5,0.6-1.5,0.6-3.2v-17.4c0-1.4-0.2-2.3-0.6-2.8c-0.4-0.4-1.4-0.7-2.8-0.8v-0.7h11.1
			c2.3,0,4.2,0.3,5.8,0.9c2.9,1.1,4.4,3.1,4.4,6.1c0,2-0.6,3.5-1.9,4.6c-1.3,1.1-3.1,1.8-5.3,2.1l8.3,10.2c0.5,0.6,1,1.1,1.5,1.4
			c0.5,0.3,1.2,0.5,2,0.5v0.7h-6.5l-10-12.3l-1.8,0.1v7.9c0,1.5,0.2,2.4,0.7,2.8c0.5,0.4,1.4,0.7,2.9,0.8v0.7h-11.1V419.9z
			 M332.1,406c2.1-0.9,3.2-2.5,3.2-4.9c0-2.3-1-3.9-2.9-4.7c-1-0.5-2.4-0.7-4.1-0.7c-1.1,0-1.8,0.1-2.1,0.2
			c-0.3,0.2-0.4,0.5-0.4,1.1v9.9C328.8,406.8,330.8,406.5,332.1,406"/>
		<path style="clip-path:url(#SVGID_00000032625794554350549660000010694596940108711088_);fill:#323031;" d="M59.7,458.4
			c0.8-0.1,1.2-0.2,1.4-0.5c0.2-0.2,0.3-0.8,0.3-1.6v-8.6c0-0.7-0.1-1.2-0.3-1.4c-0.2-0.2-0.7-0.4-1.4-0.4v-0.4h5.3
			c1.7,0,3,0.3,3.9,1c0.9,0.7,1.3,1.5,1.3,2.6c0,1.4-0.5,2.3-1.5,3c-1,0.6-2.2,0.9-3.7,0.9c-0.2,0-0.5,0-0.8,0c-0.3,0-0.6,0-0.7,0
			v3.6c0,0.7,0.1,1.2,0.3,1.4c0.2,0.2,0.7,0.3,1.5,0.4v0.4h-5.6V458.4z M66.4,446.7c-0.6-0.2-1.3-0.4-2.1-0.4c-0.4,0-0.7,0-0.8,0.1
			c-0.1,0.1-0.1,0.3-0.1,0.5v5.2c0.4,0,0.6,0.1,0.7,0.1c0.1,0,0.2,0,0.3,0c0.9,0,1.6-0.1,2.2-0.4c1-0.5,1.4-1.4,1.4-2.7
			C68,448,67.5,447.2,66.4,446.7"/>
		<path style="clip-path:url(#SVGID_00000032625794554350549660000010694596940108711088_);fill:#323031;" d="M71.6,458.4
			c0.8-0.1,1.2-0.2,1.4-0.4c0.2-0.2,0.3-0.8,0.3-1.6v-8.6c0-0.7-0.1-1.2-0.3-1.4c-0.2-0.2-0.7-0.4-1.4-0.4v-0.4h5.5
			c1.1,0,2.1,0.1,2.9,0.4c1.5,0.6,2.2,1.6,2.2,3c0,1-0.3,1.8-1,2.3c-0.6,0.5-1.5,0.9-2.6,1l4.1,5.1c0.3,0.3,0.5,0.5,0.8,0.7
			s0.6,0.2,1,0.3v0.4h-3.2l-5-6.1l-0.9,0v3.9c0,0.7,0.1,1.2,0.3,1.4c0.2,0.2,0.7,0.3,1.5,0.4v0.4h-5.5V458.4z M78.5,451.5
			c1.1-0.4,1.6-1.3,1.6-2.4c0-1.2-0.5-1.9-1.4-2.4c-0.5-0.2-1.2-0.3-2-0.3c-0.6,0-0.9,0-1,0.1c-0.1,0.1-0.2,0.3-0.2,0.6v4.9
			C76.8,451.9,77.8,451.7,78.5,451.5"/>
		<path style="clip-path:url(#SVGID_00000032625794554350549660000010694596940108711088_);fill:#323031;" d="M88.3,447.1
			c1.2-1.2,2.7-1.8,4.5-1.8c1.8,0,3.3,0.6,4.5,1.8c1.3,1.3,2,3,2,5.1c0,2.2-0.7,3.9-2.1,5.2c-1.2,1.1-2.7,1.7-4.5,1.7
			c-1.9,0-3.4-0.6-4.7-1.9c-1.3-1.3-1.9-3-1.9-5C86.3,450.1,86.9,448.4,88.3,447.1 M89.8,456.8c0.8,1,1.8,1.5,3,1.5
			c1.2,0,2.2-0.5,3-1.5c0.8-1,1.3-2.5,1.3-4.7c0-2.2-0.4-3.7-1.3-4.7c-0.8-1-1.8-1.5-3-1.5c-1.2,0-2.2,0.5-3,1.5
			c-0.8,1-1.2,2.6-1.2,4.7C88.5,454.3,88.9,455.8,89.8,456.8"/>
		<path style="clip-path:url(#SVGID_00000032625794554350549660000010694596940108711088_);fill:#323031;" d="M107,445.6v0.4
			c-0.8,0.1-1.3,0.2-1.5,0.4c-0.2,0.2-0.3,0.7-0.3,1.4v6.4c0,1,0.1,1.9,0.4,2.4c0.5,1.1,1.5,1.6,3,1.6c1.6,0,2.7-0.5,3.3-1.6
			c0.3-0.6,0.5-1.6,0.5-2.8v-5.2c0-1.1-0.1-1.8-0.4-2c-0.3-0.3-0.8-0.5-1.5-0.5v-0.4h4.6v0.4c-0.8,0.1-1.3,0.3-1.5,0.6
			c-0.2,0.3-0.4,1-0.4,2v5.2c0,1.4-0.2,2.5-0.6,3.2c-0.8,1.4-2.3,2.1-4.4,2.1c-2.2,0-3.6-0.7-4.4-2.1c-0.4-0.8-0.6-1.7-0.6-3v-6.2
			c0-0.7-0.1-1.2-0.3-1.4c-0.2-0.2-0.7-0.3-1.5-0.4v-0.4H107z"/>
		<path style="clip-path:url(#SVGID_00000032625794554350549660000010694596940108711088_);fill:#323031;" d="M116.7,458.4
			c0.7-0.1,1.2-0.2,1.4-0.4c0.2-0.2,0.3-0.6,0.3-1.4v-8.9c0-0.7-0.1-1.2-0.3-1.4c-0.2-0.2-0.7-0.3-1.4-0.4v-0.4h5.4
			c1.8,0,3.3,0.3,4.6,0.9c2.3,1.1,3.4,3,3.4,5.7c0,1-0.2,1.9-0.6,2.8c-0.4,0.9-1,1.7-1.8,2.3c-0.5,0.4-1.1,0.7-1.6,0.9
			c-1,0.4-2.3,0.6-3.8,0.6h-5.5V458.4z M120.7,457.9c0.2,0.1,0.5,0.2,1,0.2c1.6,0,2.8-0.3,3.8-0.9c1.5-0.9,2.3-2.6,2.3-4.9
			c0-2-0.6-3.6-1.9-4.6c-1.1-0.9-2.5-1.3-4.3-1.3c-0.4,0-0.8,0-0.9,0.1c-0.2,0.1-0.2,0.3-0.2,0.6v10.1
			C120.5,457.6,120.6,457.8,120.7,457.9"/>
		<path style="clip-path:url(#SVGID_00000032625794554350549660000010694596940108711088_);fill:#323031;" d="M140.3,447.1
			c1.2-1.2,2.7-1.8,4.5-1.8c1.8,0,3.3,0.6,4.5,1.8c1.3,1.3,2,3,2,5.1c0,2.2-0.7,3.9-2.1,5.2c-1.2,1.1-2.7,1.7-4.5,1.7
			c-1.9,0-3.4-0.6-4.7-1.9c-1.3-1.3-1.9-3-1.9-5C138.3,450.1,139,448.4,140.3,447.1 M141.8,456.8c0.8,1,1.8,1.5,3,1.5
			c1.2,0,2.2-0.5,3-1.5c0.8-1,1.3-2.5,1.3-4.7c0-2.2-0.4-3.7-1.3-4.7c-0.8-1-1.8-1.5-3-1.5c-1.2,0-2.2,0.5-3,1.5
			c-0.8,1-1.2,2.6-1.2,4.7C140.6,454.3,141,455.8,141.8,456.8"/>
		<path style="clip-path:url(#SVGID_00000032625794554350549660000010694596940108711088_);fill:#323031;" d="M153.4,458.4
			c0.8-0.1,1.2-0.2,1.4-0.5c0.2-0.2,0.3-0.8,0.3-1.6v-8.6c0-0.7-0.1-1.2-0.3-1.4c-0.2-0.2-0.7-0.4-1.4-0.4v-0.4h5.3
			c1.7,0,3,0.3,3.9,1c0.9,0.7,1.3,1.5,1.3,2.6c0,1.4-0.5,2.3-1.5,3c-1,0.6-2.2,0.9-3.7,0.9c-0.2,0-0.5,0-0.8,0c-0.3,0-0.6,0-0.7,0
			v3.6c0,0.7,0.1,1.2,0.3,1.4c0.2,0.2,0.7,0.3,1.5,0.4v0.4h-5.6V458.4z M160.1,446.7c-0.6-0.2-1.3-0.4-2.1-0.4c-0.4,0-0.7,0-0.8,0.1
			c-0.1,0.1-0.1,0.3-0.1,0.5v5.2c0.4,0,0.6,0.1,0.7,0.1c0.1,0,0.2,0,0.3,0c0.9,0,1.6-0.1,2.2-0.4c1-0.5,1.4-1.4,1.4-2.7
			C161.7,448,161.2,447.2,160.1,446.7"/>
		<path style="clip-path:url(#SVGID_00000032625794554350549660000010694596940108711088_);fill:#323031;" d="M165.3,458.4
			c0.7-0.1,1.2-0.2,1.4-0.4c0.2-0.2,0.3-0.7,0.3-1.4v-8.9c0-0.7-0.1-1.2-0.3-1.4c-0.2-0.2-0.7-0.4-1.4-0.4v-0.4h10.6l0.1,2.9h-0.5
			c-0.2-0.9-0.4-1.4-0.8-1.7c-0.3-0.3-1.1-0.4-2.3-0.4h-2.7c-0.3,0-0.5,0-0.5,0.1c-0.1,0.1-0.1,0.3-0.1,0.5v4.5h3.1
			c0.9,0,1.4-0.1,1.6-0.4c0.2-0.3,0.4-0.8,0.6-1.5h0.5v4.6h-0.5c-0.1-0.8-0.3-1.3-0.6-1.5c-0.2-0.2-0.8-0.4-1.6-0.4h-3.1v4.9
			c0,0.4,0.1,0.6,0.4,0.7c0.2,0.1,1,0.1,2.2,0.1c1.4,0,2.3-0.1,3-0.4c0.6-0.3,1.2-1,1.7-2.1h0.6l-0.9,3.4h-10.8V458.4z"/>
		<path style="clip-path:url(#SVGID_00000032625794554350549660000010694596940108711088_);fill:#323031;" d="M178.5,458.4
			c0.8-0.1,1.2-0.2,1.4-0.4c0.2-0.2,0.3-0.8,0.3-1.6v-8.6c0-0.7-0.1-1.2-0.3-1.4c-0.2-0.2-0.7-0.4-1.4-0.4v-0.4h5.5
			c1.1,0,2.1,0.1,2.9,0.4c1.5,0.6,2.2,1.6,2.2,3c0,1-0.3,1.8-1,2.3c-0.6,0.5-1.5,0.9-2.6,1l4.1,5.1c0.3,0.3,0.5,0.5,0.8,0.7
			c0.3,0.1,0.6,0.2,1,0.3v0.4h-3.2l-5-6.1l-0.9,0v3.9c0,0.7,0.1,1.2,0.3,1.4c0.2,0.2,0.7,0.3,1.5,0.4v0.4h-5.5V458.4z M185.3,451.5
			c1.1-0.4,1.6-1.3,1.6-2.4c0-1.2-0.5-1.9-1.4-2.4c-0.5-0.2-1.2-0.3-2-0.3c-0.6,0-0.9,0-1,0.1c-0.1,0.1-0.2,0.3-0.2,0.6v4.9
			C183.6,451.9,184.7,451.7,185.3,451.5"/>
		<path style="clip-path:url(#SVGID_00000032625794554350549660000010694596940108711088_);fill:#323031;" d="M192.8,458.8v-0.4
			c0.5-0.1,0.9-0.3,1.2-0.6c0.3-0.3,0.7-1.2,1.3-2.7l4.2-9.8h0.4l5,11.3c0.3,0.7,0.6,1.2,0.8,1.4c0.2,0.2,0.5,0.3,1,0.4v0.4h-5.1
			v-0.4c0.6-0.1,1-0.1,1.1-0.2c0.2-0.1,0.3-0.3,0.3-0.5c0-0.1,0-0.3-0.1-0.5c-0.1-0.2-0.2-0.5-0.3-0.8l-0.8-1.9h-5.3
			c-0.5,1.3-0.8,2.1-0.9,2.4c-0.1,0.3-0.2,0.5-0.2,0.7c0,0.3,0.1,0.6,0.4,0.7c0.2,0.1,0.5,0.1,1,0.2v0.4H192.8z M201.4,453.7
			l-2.3-5.5l-2.3,5.5H201.4z"/>
		<path style="clip-path:url(#SVGID_00000032625794554350549660000010694596940108711088_);fill:#323031;" d="M206,445.6h11.3
			l0.1,3.4H217c-0.2-1.1-0.5-1.8-0.9-2.1c-0.4-0.3-1.1-0.5-2.3-0.5h-1.1v10.2c0,0.8,0.1,1.2,0.4,1.4c0.2,0.2,0.8,0.3,1.6,0.4v0.4
			h-5.8v-0.4c0.8-0.1,1.4-0.2,1.6-0.4c0.2-0.2,0.3-0.7,0.3-1.6v-10h-1.1c-1.1,0-1.9,0.2-2.3,0.5c-0.4,0.3-0.7,1-0.9,2.1h-0.5
			L206,445.6z"/>
		<path style="clip-path:url(#SVGID_00000032625794554350549660000010694596940108711088_);fill:#323031;" d="M221,447.1
			c1.2-1.2,2.7-1.8,4.5-1.8c1.8,0,3.3,0.6,4.5,1.8c1.3,1.3,2,3,2,5.1c0,2.2-0.7,3.9-2.1,5.2c-1.2,1.1-2.7,1.7-4.5,1.7
			c-1.9,0-3.4-0.6-4.7-1.9c-1.3-1.3-1.9-3-1.9-5C219,450.1,219.7,448.4,221,447.1 M222.5,456.8c0.8,1,1.8,1.5,3,1.5
			c1.2,0,2.2-0.5,3-1.5c0.8-1,1.3-2.5,1.3-4.7c0-2.2-0.4-3.7-1.3-4.7c-0.8-1-1.8-1.5-3-1.5c-1.2,0-2.2,0.5-3,1.5
			c-0.8,1-1.2,2.6-1.2,4.7C221.3,454.3,221.7,455.8,222.5,456.8"/>
		<path style="clip-path:url(#SVGID_00000032625794554350549660000010694596940108711088_);fill:#323031;" d="M234,458.4
			c0.8-0.1,1.2-0.2,1.4-0.4c0.2-0.2,0.3-0.8,0.3-1.6v-8.6c0-0.7-0.1-1.2-0.3-1.4c-0.2-0.2-0.7-0.4-1.4-0.4v-0.4h5.5
			c1.1,0,2.1,0.1,2.9,0.4c1.5,0.6,2.2,1.6,2.2,3c0,1-0.3,1.8-1,2.3c-0.6,0.5-1.5,0.9-2.6,1l4.1,5.1c0.3,0.3,0.5,0.5,0.8,0.7
			c0.3,0.1,0.6,0.2,1,0.3v0.4h-3.2l-5-6.1l-0.9,0v3.9c0,0.7,0.1,1.2,0.3,1.4c0.2,0.2,0.7,0.3,1.5,0.4v0.4H234V458.4z M240.8,451.5
			c1.1-0.4,1.6-1.3,1.6-2.4c0-1.2-0.5-1.9-1.4-2.4c-0.5-0.2-1.2-0.3-2-0.3c-0.6,0-0.9,0-1,0.1c-0.1,0.1-0.2,0.3-0.2,0.6v4.9
			C239.2,451.9,240.2,451.7,240.8,451.5"/>
		<path style="clip-path:url(#SVGID_00000032625794554350549660000010694596940108711088_);fill:#323031;" d="M249.4,454.8
			c0.3,0.9,0.7,1.6,1.2,2.1c0.8,0.9,1.8,1.4,2.9,1.4c0.6,0,1.2-0.2,1.6-0.6c0.5-0.4,0.7-1,0.7-1.7c0-0.6-0.2-1.2-0.7-1.7
			c-0.3-0.3-0.9-0.8-1.9-1.4l-1.7-1.1c-0.5-0.3-0.9-0.7-1.2-1c-0.6-0.6-0.8-1.3-0.8-2.1c0-1,0.3-1.8,1-2.5c0.7-0.7,1.6-1,2.7-1
			c0.5,0,1,0.1,1.6,0.3c0.6,0.2,1,0.3,1.1,0.3c0.2,0,0.4-0.1,0.5-0.2s0.2-0.3,0.2-0.5h0.4l0.4,4.2h-0.5c-0.3-1.3-0.8-2.2-1.6-2.7
			c-0.7-0.5-1.4-0.8-2.1-0.8c-0.5,0-1,0.2-1.4,0.5c-0.4,0.3-0.6,0.8-0.6,1.3c0,0.5,0.2,1,0.5,1.3c0.3,0.4,0.8,0.8,1.4,1.2l1.8,1.1
			c1.1,0.7,1.9,1.3,2.3,1.9c0.4,0.6,0.7,1.2,0.7,2c0,1-0.4,1.9-1.2,2.6c-0.8,0.7-1.8,1.1-3,1.1c-0.6,0-1.3-0.1-1.9-0.4
			c-0.7-0.2-1.1-0.4-1.2-0.4c-0.2,0-0.4,0.1-0.5,0.2c-0.1,0.1-0.1,0.3-0.2,0.5h-0.4l-0.6-4.2H249.4z"/>
		<path style="clip-path:url(#SVGID_00000032625794554350549660000010694596940108711088_);fill:#323031;" d="M268.7,447.1
			c1.2-1.2,2.7-1.8,4.5-1.8c1.8,0,3.3,0.6,4.5,1.8c1.3,1.3,2,3,2,5.1c0,2.2-0.7,3.9-2.1,5.2c-1.2,1.1-2.7,1.7-4.5,1.7
			c-1.9,0-3.4-0.6-4.7-1.9c-1.3-1.3-1.9-3-1.9-5C266.7,450.1,267.3,448.4,268.7,447.1 M270.2,456.8c0.8,1,1.8,1.5,3,1.5
			c1.2,0,2.2-0.5,3-1.5c0.8-1,1.3-2.5,1.3-4.7c0-2.2-0.4-3.7-1.3-4.7c-0.8-1-1.8-1.5-3-1.5c-1.2,0-2.2,0.5-3,1.5
			c-0.8,1-1.2,2.6-1.2,4.7C268.9,454.3,269.3,455.8,270.2,456.8"/>
		<path style="clip-path:url(#SVGID_00000032625794554350549660000010694596940108711088_);fill:#323031;" d="M281.6,458.4
			c0.8-0.1,1.3-0.2,1.5-0.4c0.2-0.2,0.3-0.7,0.3-1.6v-8.6c0-0.7-0.1-1.2-0.3-1.4c-0.2-0.2-0.7-0.4-1.4-0.4v-0.4h10.6l0.1,2.9h-0.6
			c-0.1-0.9-0.4-1.5-0.8-1.7c-0.4-0.2-1.1-0.4-2.2-0.4H286c-0.3,0-0.4,0-0.5,0.1c-0.1,0.1-0.1,0.3-0.1,0.5v4.5h2.9
			c0.9,0,1.4-0.1,1.6-0.4c0.2-0.3,0.4-0.8,0.6-1.5h0.5v4.6h-0.5c-0.1-0.8-0.3-1.3-0.6-1.5c-0.2-0.2-0.8-0.4-1.6-0.4h-2.9v4.4
			c0,0.7,0.1,1.2,0.3,1.4c0.2,0.2,0.7,0.3,1.5,0.4v0.4h-5.6V458.4z"/>
		<path style="clip-path:url(#SVGID_00000032625794554350549660000010694596940108711088_);fill:#962231;" d="M10.4,491.9
			c0.7,0,1.2-0.1,1.5-0.3c0.5-0.3,0.8-0.8,0.8-1.6v-12.7c0-0.8-0.2-1.3-0.7-1.5c-0.3-0.2-0.8-0.3-1.6-0.3v-0.7h8.1
			c1.6,0,2.9,0.2,3.9,0.5c2,0.7,2.9,1.9,2.9,3.7c0,1.1-0.4,2-1.2,2.6c-0.8,0.6-1.7,1-2.6,1.2v0.2c1,0.2,1.8,0.5,2.5,1
			c1.4,0.9,2.1,2.1,2.1,3.6c0,1.5-0.7,2.6-2,3.5c-1.3,0.9-3.1,1.4-5.4,1.4h-8.5V491.9z M20.2,482c0.6-0.5,0.8-1.5,0.8-2.8
			c0-1-0.2-1.8-0.5-2.5c-0.4-0.7-1.1-1-2.1-1c-0.5,0-0.9,0.1-1.1,0.3c-0.2,0.2-0.3,0.5-0.3,1v5.9C18.5,482.8,19.6,482.5,20.2,482
			 M17.1,491.2c0.2,0.4,0.6,0.6,1.2,0.6c1.2,0,2.1-0.3,2.6-1c0.5-0.7,0.8-1.6,0.8-2.9c0-1.9-0.6-3.1-1.7-3.7
			c-0.7-0.4-1.7-0.6-3.1-0.5v6.6C16.9,490.6,17,491,17.1,491.2"/>
		<path style="clip-path:url(#SVGID_00000032625794554350549660000010694596940108711088_);fill:#962231;" d="M28.1,491.9
			c0.6,0,1.1-0.3,1.5-0.9c0.2-0.3,0.6-1.1,1.1-2.2l5.8-14.4h0.7l5.9,13.8c0.7,1.5,1.2,2.6,1.5,3c0.3,0.5,0.8,0.7,1.4,0.6v0.7h-8.5
			v-0.7c0.9,0,1.4-0.1,1.7-0.2c0.3-0.1,0.4-0.4,0.4-0.8c0-0.2-0.1-0.5-0.2-0.9c-0.1-0.2-0.2-0.5-0.3-0.9l-0.7-1.6h-5.9
			c-0.4,1-0.6,1.7-0.7,2c-0.2,0.7-0.3,1.2-0.3,1.5c0,0.4,0.3,0.7,0.8,0.8c0.3,0.1,0.7,0.1,1.3,0.2v0.7h-5.4V491.9z M38,486.4
			l-2.5-6.1h-0.2l-2.4,6.1H38z"/>
		<path style="clip-path:url(#SVGID_00000032625794554350549660000010694596940108711088_);fill:#962231;" d="M47.3,491.9
			c0.7,0,1.2-0.1,1.5-0.3c0.5-0.3,0.8-0.8,0.8-1.6v-12.7c0-0.8-0.2-1.3-0.7-1.5c-0.3-0.2-0.8-0.3-1.6-0.3v-0.7h9.2v0.7
			c-1.1,0-1.8,0.2-2.1,0.4c-0.4,0.3-0.5,0.9-0.5,2v12.4c0,0.6,0.2,1,0.5,1.2c0.3,0.2,0.9,0.3,1.8,0.3c1.6,0,2.9-0.3,4-1
			c1.1-0.7,2-2.1,2.8-4.1h0.8l-1.1,6H47.3V491.9z"/>
		<path style="clip-path:url(#SVGID_00000032625794554350549660000010694596940108711088_);fill:#962231;" d="M64.9,491.9
			c0.7,0,1.2-0.1,1.5-0.3c0.5-0.3,0.8-0.8,0.8-1.6v-12.7c0-0.8-0.2-1.3-0.7-1.5c-0.3-0.2-0.8-0.3-1.6-0.3v-0.7h9.2v0.7
			c-1.1,0-1.8,0.2-2.1,0.4c-0.4,0.3-0.5,0.9-0.5,2v12.4c0,0.6,0.2,1,0.5,1.2c0.3,0.2,0.9,0.3,1.8,0.3c1.6,0,2.9-0.3,4-1
			c1.1-0.7,2-2.1,2.8-4.1h0.8l-1.1,6H64.9V491.9z"/>
		<path style="clip-path:url(#SVGID_00000032625794554350549660000010694596940108711088_);fill:#962231;" d="M99,477
			c1.8,1.8,2.7,4,2.7,6.8c0,2.8-0.9,5-2.7,6.8c-1.8,1.7-4,2.6-6.6,2.6c-2.8,0-5.1-0.9-6.9-2.8c-1.7-1.8-2.5-3.9-2.5-6.4
			c0-2.8,0.9-5,2.6-6.8c1.7-1.8,4-2.7,6.8-2.7C95,474.4,97.2,475.3,99,477 M96.4,488.7c0.4-1.3,0.6-2.9,0.6-5c0-2.8-0.4-4.9-1.3-6.3
			c-0.8-1.4-2-2.1-3.4-2.1c-2,0-3.4,1.2-4.1,3.6c-0.4,1.3-0.6,2.9-0.6,4.9c0,2,0.2,3.7,0.6,5c0.7,2.3,2.1,3.5,4.1,3.5
			C94.3,492.3,95.7,491.1,96.4,488.7"/>
		<path style="clip-path:url(#SVGID_00000032625794554350549660000010694596940108711088_);fill:#962231;" d="M119.6,477
			c1.8,1.8,2.7,4,2.7,6.8c0,2.8-0.9,5-2.7,6.8c-1.8,1.7-4,2.6-6.6,2.6c-2.8,0-5.1-0.9-6.9-2.8c-1.7-1.8-2.5-3.9-2.5-6.4
			c0-2.8,0.9-5,2.6-6.8c1.7-1.8,4-2.7,6.8-2.7C115.6,474.4,117.8,475.3,119.6,477 M117,488.7c0.4-1.3,0.6-2.9,0.6-5
			c0-2.8-0.4-4.9-1.3-6.3c-0.8-1.4-2-2.1-3.4-2.1c-2,0-3.4,1.2-4.1,3.6c-0.4,1.3-0.6,2.9-0.6,4.9c0,2,0.2,3.7,0.6,5
			c0.7,2.3,2.1,3.5,4.1,3.5C114.9,492.3,116.3,491.1,117,488.7"/>
		<path style="clip-path:url(#SVGID_00000032625794554350549660000010694596940108711088_);fill:#962231;" d="M123.8,491.9
			c1,0,1.6-0.2,1.9-0.6c0.3-0.3,0.4-0.9,0.4-1.5v-12.5c-0.8-0.9-1.3-1.4-1.5-1.6s-0.4-0.3-0.8-0.3v-0.7h5.6l9,11h0.1v-7.7
			c0-0.9-0.2-1.5-0.5-1.9c-0.3-0.4-1-0.6-1.9-0.7v-0.7h5.7v0.7c-0.8,0.1-1.4,0.3-1.7,0.5c-0.3,0.2-0.4,0.7-0.4,1.5v15.5H139
			L127.4,479h-0.2v10.3c0,0.8,0.1,1.4,0.3,1.7c0.4,0.5,1.1,0.8,2.2,0.9v0.7h-6V491.9z"/>
		<path style="clip-path:url(#SVGID_00000032625794554350549660000010694596940108711088_);fill:#962231;" d="M143.4,486.5h0.8
			c0.4,2,1.1,3.4,2,4.3c0.9,0.9,2,1.3,3.2,1.3c1.2,0,2-0.3,2.5-0.9c0.5-0.6,0.7-1.3,0.7-1.9c0-0.8-0.3-1.4-0.8-1.9
			c-0.3-0.3-1-0.7-2.1-1.3l-1.7-0.8c-1.7-0.8-2.8-1.7-3.5-2.5c-0.7-0.8-1-1.8-1-3c0-1.3,0.5-2.5,1.4-3.6c0.9-1.1,2.3-1.7,4.2-1.7
			c1,0,1.9,0.1,2.8,0.4c0.9,0.3,1.4,0.4,1.5,0.4c0.3,0,0.5-0.1,0.6-0.3c0.1-0.2,0.2-0.4,0.3-0.7h0.8v5.7h-0.7
			c-0.3-1.3-0.9-2.5-1.8-3.4c-0.9-1-1.9-1.4-3.2-1.4c-0.9,0-1.6,0.2-2.1,0.7c-0.5,0.5-0.8,1.1-0.8,1.8c0,0.8,0.2,1.5,0.7,1.9
			c0.5,0.4,1.5,1,3.1,1.9l1.9,1c0.9,0.4,1.6,0.9,2.1,1.5c1,1,1.4,2.2,1.4,3.6c0,1.3-0.5,2.6-1.5,3.8c-1,1.2-2.7,1.8-5,1.8
			c-0.5,0-1.1,0-1.6-0.1c-0.5-0.1-1.1-0.3-1.6-0.5l-0.5-0.2c-0.1,0-0.2-0.1-0.3-0.1c-0.1,0-0.2,0-0.3,0c-0.3,0-0.5,0.1-0.6,0.2
			c-0.1,0.2-0.2,0.4-0.3,0.7h-0.8V486.5z"/>
		<path style="clip-path:url(#SVGID_00000032625794554350549660000010694596940108711088_);fill:#962231;" d="M180.8,477
			c1.8,1.8,2.7,4,2.7,6.8c0,2.8-0.9,5-2.7,6.8c-1.8,1.7-4,2.6-6.6,2.6c-2.8,0-5.1-0.9-6.9-2.8c-1.7-1.8-2.5-3.9-2.5-6.4
			c0-2.8,0.9-5,2.6-6.8c1.7-1.8,4-2.7,6.8-2.7C176.8,474.4,179,475.3,180.8,477 M178.2,488.7c0.4-1.3,0.6-2.9,0.6-5
			c0-2.8-0.4-4.9-1.3-6.3s-2-2.1-3.4-2.1c-2,0-3.4,1.2-4.1,3.6c-0.4,1.3-0.6,2.9-0.6,4.9c0,2,0.2,3.7,0.6,5c0.7,2.3,2.1,3.5,4.1,3.5
			C176.1,492.3,177.5,491.1,178.2,488.7"/>
		<path style="clip-path:url(#SVGID_00000032625794554350549660000010694596940108711088_);fill:#962231;" d="M193.8,474.8v0.6
			c-0.9,0.1-1.6,0.1-1.8,0.2c-0.3,0.1-0.4,0.4-0.4,0.8c0,0.1,0,0.3,0,0.4c0,0.1,0.1,0.2,0.1,0.4l4.2,9.7h0l3.4-8.9
			c0.1-0.2,0.1-0.4,0.2-0.6c0.1-0.3,0.2-0.6,0.2-0.8c0-0.5-0.1-0.8-0.4-0.9c-0.3-0.1-0.9-0.2-1.8-0.3v-0.6h5.6v0.6
			c-0.6,0.1-1.1,0.3-1.4,0.6c-0.3,0.3-0.6,0.8-0.9,1.6l-6,15.5h-0.7l-6.8-15.8c-0.3-0.6-0.6-1.1-0.8-1.4c-0.3-0.3-0.7-0.4-1.3-0.5
			v-0.6H193.8z"/>
		<path style="clip-path:url(#SVGID_00000032625794554350549660000010694596940108711088_);fill:#962231;" d="M204.1,492.6v-0.7
			c0.8,0,1.3-0.1,1.6-0.3c0.5-0.3,0.7-0.8,0.7-1.5v-12.7c0-0.8-0.3-1.3-0.8-1.5c-0.3-0.2-0.8-0.3-1.6-0.3v-0.7h15.2v5.3h-0.6
			c-0.3-1.7-0.9-2.9-1.7-3.5c-0.8-0.6-2.3-0.9-4.4-0.9c-0.8,0-1.3,0.1-1.5,0.2c-0.2,0.2-0.3,0.5-0.3,1v6.1c1.5,0,2.5-0.3,3-0.8
			c0.5-0.6,0.9-1.6,1.2-3.1h0.7v8.9h-0.7c-0.2-1.5-0.6-2.6-1.1-3.2s-1.6-0.9-3.1-0.9v6.4c0,0.6,0.1,0.9,0.4,1.1
			c0.3,0.2,0.9,0.3,1.8,0.3c1.7,0,3-0.3,4.1-1c1.1-0.7,2-1.9,2.8-3.7h0.7l-1.1,5.5H204.1z"/>
		<path style="clip-path:url(#SVGID_00000032625794554350549660000010694596940108711088_);fill:#962231;" d="M221.8,491.9
			c0.9,0,1.5-0.2,1.8-0.5c0.3-0.3,0.5-0.9,0.5-1.9v-11.6c0-1-0.2-1.7-0.6-2c-0.3-0.2-0.8-0.3-1.7-0.4v-0.7h8.5
			c1.8,0,3.2,0.2,4.3,0.6c2.1,0.7,3.2,2.1,3.2,4c0,1.4-0.6,2.6-1.7,3.4c-0.8,0.6-1.7,1-2.7,1.2l5.6,7.5c0.1,0.2,0.3,0.3,0.5,0.4
			c0.2,0.1,0.4,0.1,0.6,0.1v0.6h-5.5l-6.1-8.2h0v5.2c0,0.9,0.2,1.5,0.5,1.9c0.3,0.3,0.9,0.5,1.8,0.5v0.7h-8.9V491.9z M232,482.8
			c0.7-0.5,1.1-1.5,1.1-3.2c0-1-0.1-1.8-0.4-2.4c-0.5-1-1.4-1.5-2.7-1.5c-0.7,0-1.2,0.1-1.4,0.3c-0.2,0.2-0.3,0.5-0.3,0.9v6.7
			C230.1,483.5,231.3,483.3,232,482.8"/>
		<path style="clip-path:url(#SVGID_00000032625794554350549660000010694596940108711088_);fill:#962231;" d="M247.6,491.9
			c0.7,0,1.2-0.1,1.5-0.3c0.5-0.3,0.8-0.8,0.8-1.6v-12.7c0-0.8-0.2-1.3-0.7-1.5c-0.3-0.2-0.8-0.3-1.6-0.3v-0.7h8.1
			c1.6,0,2.9,0.2,3.9,0.5c2,0.7,2.9,1.9,2.9,3.7c0,1.1-0.4,2-1.2,2.6c-0.8,0.6-1.7,1-2.6,1.2v0.2c1,0.2,1.8,0.5,2.5,1
			c1.4,0.9,2.1,2.1,2.1,3.6c0,1.5-0.7,2.6-2,3.5c-1.3,0.9-3.1,1.4-5.4,1.4h-8.5V491.9z M257.4,482c0.6-0.5,0.8-1.5,0.8-2.8
			c0-1-0.2-1.8-0.5-2.5c-0.4-0.7-1.1-1-2.1-1c-0.5,0-0.9,0.1-1.1,0.3c-0.2,0.2-0.3,0.5-0.3,1v5.9C255.7,482.8,256.8,482.5,257.4,482
			 M254.3,491.2c0.2,0.4,0.6,0.6,1.2,0.6c1.2,0,2.1-0.3,2.6-1c0.5-0.7,0.8-1.6,0.8-2.9c0-1.9-0.6-3.1-1.7-3.7
			c-0.7-0.4-1.7-0.6-3.1-0.5v6.6C254.1,490.6,254.2,491,254.3,491.2"/>
		<path style="clip-path:url(#SVGID_00000032625794554350549660000010694596940108711088_);fill:#962231;" d="M265.3,491.9
			c0.6,0,1.1-0.3,1.5-0.9c0.2-0.3,0.6-1.1,1.1-2.2l5.8-14.4h0.7l5.9,13.8c0.7,1.5,1.2,2.6,1.5,3c0.3,0.5,0.8,0.7,1.4,0.6v0.7h-8.5
			v-0.7c0.9,0,1.4-0.1,1.7-0.2c0.3-0.1,0.4-0.4,0.4-0.8c0-0.2-0.1-0.5-0.2-0.9c-0.1-0.2-0.2-0.5-0.3-0.9l-0.7-1.6h-5.9
			c-0.4,1-0.6,1.7-0.7,2c-0.2,0.7-0.3,1.2-0.3,1.5c0,0.4,0.3,0.7,0.8,0.8c0.3,0.1,0.7,0.1,1.3,0.2v0.7h-5.4V491.9z M275.2,486.4
			l-2.5-6.1h-0.2l-2.4,6.1H275.2z"/>
		<path style="clip-path:url(#SVGID_00000032625794554350549660000010694596940108711088_);fill:#962231;" d="M287.5,477.3
			c1.7-1.8,4-2.8,6.7-2.8c1.1,0,2.2,0.2,3.3,0.6c1.1,0.4,1.8,0.6,2,0.6c0.3,0,0.5-0.1,0.7-0.3c0.2-0.2,0.3-0.5,0.4-0.9h0.7v6.2h-0.7
			c-0.6-1.3-1.3-2.4-1.9-3.2c-1.2-1.4-2.6-2.1-4.2-2.1c-1.7,0-2.9,0.7-3.7,2.2c-0.8,1.5-1.2,3.5-1.2,6.2c0,2.2,0.4,4.1,1.1,5.9
			c0.7,1.7,2.1,2.6,4.2,2.6c1.1,0,1.9-0.2,2.3-0.7c0.2-0.3,0.3-0.7,0.3-1.2v-2.8c0-0.8-0.2-1.3-0.7-1.6c-0.3-0.2-1-0.2-1.9-0.3v-0.7
			h9v0.7c-0.9,0-1.5,0.2-1.8,0.5c-0.3,0.3-0.4,0.9-0.4,1.9v3.4c-0.6,0.4-1.5,0.7-2.8,1.1c-1.3,0.4-2.8,0.5-4.4,0.5
			c-2.9,0-5.3-0.9-7-2.8c-1.6-1.7-2.4-3.9-2.4-6.5C285,481.3,285.8,479.1,287.5,477.3"/>
		<path style="clip-path:url(#SVGID_00000032625794554350549660000010694596940108711088_);fill:#962231;" d="M305.1,491.9
			c0.6,0,1.1-0.3,1.5-0.9c0.2-0.3,0.6-1.1,1.1-2.2l5.8-14.4h0.7l5.9,13.8c0.7,1.5,1.2,2.6,1.5,3c0.3,0.5,0.8,0.7,1.4,0.6v0.7h-8.5
			v-0.7c0.9,0,1.4-0.1,1.7-0.2c0.3-0.1,0.4-0.4,0.4-0.8c0-0.2-0.1-0.5-0.2-0.9c-0.1-0.2-0.2-0.5-0.3-0.9l-0.7-1.6h-5.9
			c-0.4,1-0.6,1.7-0.7,2c-0.2,0.7-0.3,1.2-0.3,1.5c0,0.4,0.3,0.7,0.8,0.8c0.3,0.1,0.7,0.1,1.3,0.2v0.7h-5.4V491.9z M314.9,486.4
			l-2.5-6.1h-0.2l-2.4,6.1H314.9z"/>
		<path style="clip-path:url(#SVGID_00000032625794554350549660000010694596940108711088_);fill:#962231;" d="M324.1,491.9
			c1,0,1.6-0.2,1.9-0.6c0.3-0.3,0.4-0.9,0.4-1.5v-12.5c-0.8-0.9-1.3-1.4-1.5-1.6c-0.2-0.2-0.4-0.3-0.8-0.3v-0.7h5.6l9,11h0.1v-7.7
			c0-0.9-0.2-1.5-0.5-1.9c-0.3-0.4-1-0.6-1.9-0.7v-0.7h5.7v0.7c-0.8,0.1-1.4,0.3-1.7,0.5c-0.3,0.2-0.4,0.7-0.4,1.5v15.5h-0.7
			L327.8,479h-0.2v10.3c0,0.8,0.1,1.4,0.3,1.7c0.4,0.5,1.1,0.8,2.2,0.9v0.7h-6V491.9z"/>
		
			<line style="clip-path:url(#SVGID_00000032625794554350549660000010694596940108711088_);fill:none;stroke:#323031;stroke-width:1.351;stroke-miterlimit:10;" x1="10.8" y1="452.5" x2="48.1" y2="452.5"/>
		
			<line style="clip-path:url(#SVGID_00000032625794554350549660000010694596940108711088_);fill:none;stroke:#323031;stroke-width:1.351;stroke-miterlimit:10;" x1="304.7" y1="452.5" x2="342" y2="452.5"/>
	</g>
</g>
</svg>
