<?xml version="1.0" encoding="UTF-8"?>
<svg xmlns="http://www.w3.org/2000/svg" version="1.1" width="100" height="100" viewBox="0 0 100 100"><rect x="0" y="0" width="100" height="100" fill="#ffffff"/><g transform="scale(2.703)"><g transform="translate(0,0)"><path fill-rule="evenodd" d="M8 0L8 1L9 1L9 2L10 2L10 3L11 3L11 1L13 1L13 0L11 0L11 1L9 1L9 0ZM15 0L15 1L16 1L16 2L15 2L15 3L16 3L16 4L14 4L14 5L15 5L15 6L14 6L14 7L13 7L13 5L12 5L12 4L13 4L13 2L12 2L12 4L11 4L11 5L10 5L10 4L9 4L9 5L10 5L10 8L9 8L9 6L8 6L8 8L9 8L9 9L7 9L7 8L6 8L6 9L7 9L7 10L5 10L5 8L3 8L3 9L2 9L2 8L0 8L0 9L1 9L1 10L0 10L0 11L1 11L1 13L2 13L2 14L1 14L1 15L2 15L2 14L3 14L3 15L4 15L4 16L2 16L2 18L1 18L1 19L2 19L2 18L4 18L4 19L3 19L3 20L5 20L5 21L7 21L7 22L5 22L5 24L4 24L4 22L3 22L3 21L1 21L1 20L0 20L0 21L1 21L1 22L0 22L0 23L1 23L1 22L2 22L2 24L1 24L1 25L0 25L0 29L1 29L1 27L2 27L2 29L4 29L4 28L5 28L5 29L7 29L7 28L8 28L8 30L9 30L9 31L10 31L10 30L12 30L12 31L11 31L11 32L8 32L8 34L10 34L10 33L12 33L12 34L11 34L11 35L10 35L10 36L11 36L11 37L14 37L14 31L15 31L15 32L16 32L16 33L15 33L15 37L17 37L17 36L18 36L18 34L17 34L17 33L18 33L18 32L19 32L19 34L20 34L20 37L21 37L21 35L22 35L22 36L23 36L23 37L25 37L25 36L24 36L24 33L25 33L25 34L26 34L26 36L27 36L27 37L30 37L30 36L31 36L31 35L33 35L33 37L34 37L34 36L36 36L36 37L37 37L37 30L36 30L36 28L37 28L37 26L36 26L36 25L37 25L37 22L36 22L36 21L37 21L37 18L36 18L36 20L35 20L35 21L34 21L34 22L33 22L33 20L34 20L34 19L35 19L35 17L37 17L37 14L36 14L36 11L37 11L37 10L34 10L34 9L31 9L31 8L30 8L30 9L29 9L29 8L28 8L28 7L29 7L29 6L28 6L28 7L27 7L27 5L29 5L29 3L28 3L28 2L29 2L29 1L28 1L28 2L27 2L27 4L26 4L26 2L23 2L23 0L21 0L21 1L22 1L22 2L21 2L21 5L20 5L20 4L18 4L18 3L17 3L17 1L18 1L18 0ZM25 0L25 1L27 1L27 0ZM19 1L19 3L20 3L20 1ZM22 2L22 4L23 4L23 2ZM17 4L17 8L15 8L15 7L16 7L16 6L15 6L15 7L14 7L14 13L15 13L15 14L14 14L14 15L12 15L12 16L11 16L11 15L10 15L10 16L11 16L11 17L10 17L10 18L11 18L11 17L14 17L14 16L15 16L15 18L12 18L12 19L11 19L11 20L9 20L9 19L8 19L8 18L9 18L9 17L8 17L8 16L9 16L9 13L8 13L8 11L9 11L9 12L10 12L10 14L13 14L13 13L11 13L11 12L10 12L10 11L9 11L9 10L12 10L12 11L13 11L13 10L12 10L12 9L13 9L13 7L12 7L12 5L11 5L11 7L12 7L12 9L9 9L9 10L7 10L7 11L5 11L5 12L4 12L4 10L1 10L1 11L3 11L3 12L4 12L4 13L5 13L5 17L4 17L4 18L7 18L7 19L5 19L5 20L9 20L9 21L8 21L8 23L6 23L6 24L7 24L7 25L6 25L6 26L7 26L7 27L5 27L5 28L7 28L7 27L10 27L10 29L11 29L11 28L12 28L12 27L14 27L14 26L16 26L16 27L15 27L15 28L13 28L13 29L12 29L12 30L15 30L15 28L16 28L16 31L17 31L17 32L18 32L18 31L19 31L19 30L18 30L18 31L17 31L17 28L18 28L18 29L20 29L20 27L19 27L19 26L18 26L18 25L19 25L19 24L20 24L20 26L21 26L21 30L20 30L20 31L21 31L21 34L22 34L22 35L23 35L23 32L24 32L24 31L23 31L23 32L22 32L22 31L21 31L21 30L23 30L23 29L24 29L24 30L26 30L26 31L27 31L27 32L28 32L28 30L26 30L26 29L27 29L27 28L28 28L28 27L29 27L29 26L31 26L31 27L33 27L33 26L31 26L31 25L29 25L29 24L30 24L30 23L33 23L33 22L31 22L31 21L32 21L32 19L29 19L29 18L31 18L31 17L32 17L32 18L33 18L33 19L34 19L34 17L33 17L33 16L31 16L31 15L35 15L35 16L36 16L36 14L32 14L32 13L33 13L33 12L34 12L34 13L35 13L35 12L34 12L34 10L32 10L32 11L31 11L31 13L29 13L29 11L30 11L30 10L31 10L31 9L30 9L30 10L29 10L29 9L28 9L28 8L27 8L27 10L26 10L26 9L25 9L25 8L24 8L24 6L25 6L25 7L26 7L26 6L25 6L25 4L24 4L24 6L23 6L23 8L22 8L22 6L21 6L21 9L20 9L20 10L19 10L19 8L20 8L20 5L18 5L18 4ZM18 6L18 8L19 8L19 6ZM23 8L23 11L22 11L22 9L21 9L21 10L20 10L20 13L21 13L21 11L22 11L22 12L24 12L24 13L25 13L25 14L24 14L24 15L23 15L23 13L22 13L22 20L24 20L24 21L23 21L23 22L22 22L22 24L24 24L24 25L26 25L26 27L28 27L28 24L29 24L29 23L30 23L30 21L31 21L31 20L29 20L29 19L28 19L28 18L29 18L29 17L31 17L31 16L30 16L30 14L28 14L28 12L27 12L27 13L25 13L25 11L26 11L26 10L25 10L25 11L24 11L24 8ZM36 8L36 9L37 9L37 8ZM16 9L16 10L15 10L15 11L16 11L16 12L15 12L15 13L16 13L16 15L15 15L15 16L16 16L16 18L15 18L15 19L14 19L14 20L13 20L13 19L12 19L12 21L14 21L14 24L13 24L13 25L12 25L12 26L13 26L13 25L15 25L15 24L16 24L16 25L17 25L17 24L18 24L18 23L19 23L19 22L21 22L21 19L20 19L20 18L21 18L21 17L17 17L17 16L16 16L16 15L17 15L17 14L19 14L19 15L18 15L18 16L20 16L20 14L19 14L19 13L18 13L18 12L19 12L19 11L18 11L18 10L17 10L17 9ZM27 10L27 11L28 11L28 10ZM6 12L6 13L7 13L7 14L6 14L6 15L7 15L7 14L8 14L8 13L7 13L7 12ZM25 14L25 16L26 16L26 20L25 20L25 21L24 21L24 23L25 23L25 24L26 24L26 25L27 25L27 24L28 24L28 23L29 23L29 22L28 22L28 23L27 23L27 24L26 24L26 23L25 23L25 22L27 22L27 21L26 21L26 20L28 20L28 19L27 19L27 16L26 16L26 14ZM6 16L6 17L7 17L7 16ZM23 16L23 17L24 17L24 18L25 18L25 17L24 17L24 16ZM16 18L16 19L15 19L15 20L18 20L18 21L15 21L15 23L16 23L16 24L17 24L17 23L18 23L18 22L19 22L19 21L20 21L20 20L19 20L19 19L18 19L18 18ZM12 22L12 23L13 23L13 22ZM35 22L35 23L36 23L36 22ZM20 23L20 24L21 24L21 23ZM2 24L2 27L3 27L3 28L4 28L4 27L3 27L3 25L4 25L4 24ZM8 24L8 26L9 26L9 24ZM32 24L32 25L34 25L34 26L35 26L35 25L36 25L36 24ZM10 25L10 26L11 26L11 25ZM21 25L21 26L22 26L22 27L23 27L23 28L22 28L22 29L23 29L23 28L24 28L24 29L25 29L25 28L24 28L24 27L23 27L23 26L22 26L22 25ZM17 26L17 27L16 27L16 28L17 28L17 27L18 27L18 26ZM35 27L35 28L36 28L36 27ZM29 29L29 32L32 32L32 29ZM33 29L33 31L34 31L34 33L31 33L31 34L30 34L30 33L29 33L29 34L28 34L28 33L27 33L27 35L28 35L28 36L29 36L29 35L31 35L31 34L33 34L33 35L34 35L34 33L36 33L36 30L35 30L35 29ZM30 30L30 31L31 31L31 30ZM34 30L34 31L35 31L35 30ZM12 31L12 33L13 33L13 31ZM25 32L25 33L26 33L26 32ZM12 34L12 35L13 35L13 34ZM35 34L35 35L36 35L36 34ZM8 35L8 37L9 37L9 35ZM16 35L16 36L17 36L17 35ZM0 0L0 7L7 7L7 0ZM1 1L1 6L6 6L6 1ZM2 2L2 5L5 5L5 2ZM30 0L30 7L37 7L37 0ZM31 1L31 6L36 6L36 1ZM32 2L32 5L35 5L35 2ZM0 30L0 37L7 37L7 30ZM1 31L1 36L6 36L6 31ZM2 32L2 35L5 35L5 32Z" fill="#000000"/></g></g></svg>
